<svg xmlns="http://www.w3.org/2000/svg" xmlns:xlink="http://www.w3.org/1999/xlink" width="1650" zoomAndPan="magnify" viewBox="0 0 1237.5 412.499988" height="550" preserveAspectRatio="xMidYMid meet" version="1.0"><defs><filter x="0%" y="0%" width="100%" height="100%" id="9a0033e6c2"><feColorMatrix values="0 0 0 0 1 0 0 0 0 1 0 0 0 0 1 0 0 0 1 0" color-interpolation-filters="sRGB"/></filter><g/><clipPath id="f670486577"><path d="M 0.5 0 L 1236.5 0 L 1236.5 412 L 0.5 412 Z M 0.5 0 " clip-rule="nonzero"/></clipPath><clipPath id="b69a2ca258"><path d="M 0.253906 48 L 188 48 L 188 245 L 0.253906 245 Z M 0.253906 48 " clip-rule="nonzero"/></clipPath><clipPath id="fe5eb18404"><rect x="0" width="1075" y="0" height="344"/></clipPath><clipPath id="3e5125e320"><path d="M 46.941406 32.957031 L 82.0625 32.957031 L 82.0625 387.460938 L 46.941406 387.460938 Z M 46.941406 32.957031 " clip-rule="nonzero"/></clipPath><clipPath id="a931a10843"><path d="M 64.503906 32.957031 C 69.160156 32.957031 73.628906 34.808594 76.921875 38.101562 C 80.214844 41.394531 82.0625 45.859375 82.0625 50.519531 L 82.0625 369.765625 C 82.0625 374.425781 80.214844 378.890625 76.921875 382.183594 C 73.628906 385.476562 69.160156 387.328125 64.503906 387.328125 C 59.847656 387.328125 55.378906 385.476562 52.085938 382.183594 C 48.792969 378.890625 46.941406 374.425781 46.941406 369.765625 L 46.941406 50.519531 C 46.941406 45.859375 48.792969 41.394531 52.085938 38.101562 C 55.378906 34.808594 59.847656 32.957031 64.503906 32.957031 Z M 64.503906 32.957031 " clip-rule="nonzero"/></clipPath><clipPath id="c88fc473f5"><path d="M 0.941406 0.957031 L 36.0625 0.957031 L 36.0625 355.371094 L 0.941406 355.371094 Z M 0.941406 0.957031 " clip-rule="nonzero"/></clipPath><clipPath id="9643a7b93b"><path d="M 18.503906 0.957031 C 23.160156 0.957031 27.628906 2.808594 30.921875 6.101562 C 34.214844 9.394531 36.0625 13.859375 36.0625 18.519531 L 36.0625 337.765625 C 36.0625 342.425781 34.214844 346.890625 30.921875 350.183594 C 27.628906 353.476562 23.160156 355.328125 18.503906 355.328125 C 13.847656 355.328125 9.378906 353.476562 6.085938 350.183594 C 2.792969 346.890625 0.941406 342.425781 0.941406 337.765625 L 0.941406 18.519531 C 0.941406 13.859375 2.792969 9.394531 6.085938 6.101562 C 9.378906 2.808594 13.847656 0.957031 18.503906 0.957031 Z M 18.503906 0.957031 " clip-rule="nonzero"/></clipPath><clipPath id="f9825e0187"><rect x="0" width="37" y="0" height="356"/></clipPath><clipPath id="01a01922cf"><path d="M 0.5 144 L 1236.5 144 L 1236.5 412 L 0.5 412 Z M 0.5 144 " clip-rule="nonzero"/></clipPath><clipPath id="a845ea6bc2"><path d="M 0.5 1.574219 L 1236.5 1.574219 L 1236.5 268 L 0.5 268 Z M 0.5 1.574219 " clip-rule="nonzero"/></clipPath><clipPath id="05956bbad8"><path d="M 0.5 0.574219 L 1236.5 0.574219 L 1236.5 267 L 0.5 267 Z M 0.5 0.574219 " clip-rule="nonzero"/></clipPath><clipPath id="b6901852dd"><path d="M 0.5 0.574219 L 1236.5 0.574219 L 1236.5 267 L 0.5 267 Z M 0.5 0.574219 " clip-rule="nonzero"/></clipPath><clipPath id="57499a18aa"><rect x="0" width="1237" y="0" height="267"/></clipPath><clipPath id="247e6a5f13"><rect x="0" width="1237" y="0" height="267"/></clipPath><mask id="9db548281f"><g filter="url(#9a0033e6c2)"><g transform="matrix(1, 0, 0, 1, 0.000000000000000111, 0)"><g clip-path="url(#247e6a5f13)"><g clip-path="url(#b6901852dd)"><g transform="matrix(1, 0, 0, 1, 0.000000000000000111, 0)"><g clip-path="url(#57499a18aa)"><g fill="#000000" fill-opacity="1"><g transform="translate(101.733105, 222.334844)"><g><path d="M 5.84375 -53.796875 L 5.84375 0 L 16.984375 0 L 16.984375 -53.796875 Z M 5.84375 -53.796875 "/></g></g></g><g fill="#000000" fill-opacity="1"><g transform="translate(482.669541, 222.334844)"><g/></g></g><g fill="#000000" fill-opacity="1"><g transform="translate(1175.91211, 222.334844)"><g/></g></g></g></g></g></g></g></g></mask><clipPath id="a7d64d93e9"><path d="M 0.5 0.574219 L 1236.5 0.574219 L 1236.5 267 L 0.5 267 Z M 0.5 0.574219 " clip-rule="nonzero"/></clipPath><linearGradient x1="-163.411588" gradientTransform="matrix(0.6213, 0, 0, 0.620393, 102.027065, 154.067472)" y1="68" x2="1825.967664" gradientUnits="userSpaceOnUse" y2="68" id="32a0ff3e29"><stop stop-opacity="1" stop-color="rgb(42.349243%, 19.60907%, 67.83905%)" offset="0"/><stop stop-opacity="1" stop-color="rgb(42.349243%, 19.60907%, 67.83905%)" offset="0.0625"/><stop stop-opacity="1" stop-color="rgb(42.349243%, 19.60907%, 67.83905%)" offset="0.078125"/><stop stop-opacity="1" stop-color="rgb(42.472839%, 19.657898%, 67.863464%)" offset="0.0859375"/><stop stop-opacity="1" stop-color="rgb(42.851257%, 19.807434%, 67.938232%)" offset="0.0898438"/><stop stop-opacity="1" stop-color="rgb(43.106079%, 19.908142%, 67.988586%)" offset="0.09375"/><stop stop-opacity="1" stop-color="rgb(43.360901%, 20.007324%, 68.03894%)" offset="0.0976562"/><stop stop-opacity="1" stop-color="rgb(43.615723%, 20.108032%, 68.089294%)" offset="0.101562"/><stop stop-opacity="1" stop-color="rgb(43.870544%, 20.20874%, 68.139648%)" offset="0.105469"/><stop stop-opacity="1" stop-color="rgb(44.125366%, 20.309448%, 68.190002%)" offset="0.109375"/><stop stop-opacity="1" stop-color="rgb(44.380188%, 20.410156%, 68.240356%)" offset="0.113281"/><stop stop-opacity="1" stop-color="rgb(44.63501%, 20.510864%, 68.29071%)" offset="0.117188"/><stop stop-opacity="1" stop-color="rgb(44.889832%, 20.611572%, 68.341064%)" offset="0.121094"/><stop stop-opacity="1" stop-color="rgb(45.144653%, 20.71228%, 68.391418%)" offset="0.125"/><stop stop-opacity="1" stop-color="rgb(45.399475%, 20.811462%, 68.441772%)" offset="0.128906"/><stop stop-opacity="1" stop-color="rgb(45.654297%, 20.91217%, 68.492126%)" offset="0.132813"/><stop stop-opacity="1" stop-color="rgb(45.907593%, 21.012878%, 68.540955%)" offset="0.136719"/><stop stop-opacity="1" stop-color="rgb(46.162415%, 21.113586%, 68.591309%)" offset="0.140625"/><stop stop-opacity="1" stop-color="rgb(46.417236%, 21.214294%, 68.641663%)" offset="0.144531"/><stop stop-opacity="1" stop-color="rgb(46.672058%, 21.315002%, 68.692017%)" offset="0.148438"/><stop stop-opacity="1" stop-color="rgb(46.92688%, 21.414185%, 68.742371%)" offset="0.152344"/><stop stop-opacity="1" stop-color="rgb(47.181702%, 21.514893%, 68.792725%)" offset="0.15625"/><stop stop-opacity="1" stop-color="rgb(47.436523%, 21.615601%, 68.843079%)" offset="0.160156"/><stop stop-opacity="1" stop-color="rgb(47.691345%, 21.716309%, 68.893433%)" offset="0.164063"/><stop stop-opacity="1" stop-color="rgb(47.946167%, 21.817017%, 68.943787%)" offset="0.167969"/><stop stop-opacity="1" stop-color="rgb(48.200989%, 21.917725%, 68.994141%)" offset="0.171875"/><stop stop-opacity="1" stop-color="rgb(48.455811%, 22.016907%, 69.044495%)" offset="0.175781"/><stop stop-opacity="1" stop-color="rgb(48.710632%, 22.117615%, 69.094849%)" offset="0.179688"/><stop stop-opacity="1" stop-color="rgb(48.965454%, 22.218323%, 69.145203%)" offset="0.183594"/><stop stop-opacity="1" stop-color="rgb(49.220276%, 22.319031%, 69.195557%)" offset="0.1875"/><stop stop-opacity="1" stop-color="rgb(49.475098%, 22.419739%, 69.245911%)" offset="0.191406"/><stop stop-opacity="1" stop-color="rgb(49.729919%, 22.520447%, 69.296265%)" offset="0.195312"/><stop stop-opacity="1" stop-color="rgb(49.983215%, 22.621155%, 69.346619%)" offset="0.199219"/><stop stop-opacity="1" stop-color="rgb(50.238037%, 22.721863%, 69.396973%)" offset="0.203125"/><stop stop-opacity="1" stop-color="rgb(50.492859%, 22.821045%, 69.447327%)" offset="0.207031"/><stop stop-opacity="1" stop-color="rgb(50.747681%, 22.921753%, 69.497681%)" offset="0.210938"/><stop stop-opacity="1" stop-color="rgb(51.002502%, 23.022461%, 69.548035%)" offset="0.214844"/><stop stop-opacity="1" stop-color="rgb(51.257324%, 23.123169%, 69.598389%)" offset="0.21875"/><stop stop-opacity="1" stop-color="rgb(51.512146%, 23.223877%, 69.647217%)" offset="0.222656"/><stop stop-opacity="1" stop-color="rgb(51.766968%, 23.324585%, 69.697571%)" offset="0.226562"/><stop stop-opacity="1" stop-color="rgb(52.02179%, 23.423767%, 69.747925%)" offset="0.230469"/><stop stop-opacity="1" stop-color="rgb(52.276611%, 23.524475%, 69.798279%)" offset="0.234375"/><stop stop-opacity="1" stop-color="rgb(52.531433%, 23.625183%, 69.848633%)" offset="0.238281"/><stop stop-opacity="1" stop-color="rgb(52.786255%, 23.725891%, 69.898987%)" offset="0.242188"/><stop stop-opacity="1" stop-color="rgb(53.041077%, 23.826599%, 69.949341%)" offset="0.246094"/><stop stop-opacity="1" stop-color="rgb(53.295898%, 23.927307%, 69.999695%)" offset="0.25"/><stop stop-opacity="1" stop-color="rgb(53.55072%, 24.026489%, 70.050049%)" offset="0.253906"/><stop stop-opacity="1" stop-color="rgb(53.805542%, 24.127197%, 70.100403%)" offset="0.257813"/><stop stop-opacity="1" stop-color="rgb(54.060364%, 24.227905%, 70.150757%)" offset="0.261719"/><stop stop-opacity="1" stop-color="rgb(54.315186%, 24.328613%, 70.201111%)" offset="0.265625"/><stop stop-opacity="1" stop-color="rgb(54.568481%, 24.429321%, 70.251465%)" offset="0.269531"/><stop stop-opacity="1" stop-color="rgb(54.823303%, 24.530029%, 70.301819%)" offset="0.273438"/><stop stop-opacity="1" stop-color="rgb(55.078125%, 24.630737%, 70.352173%)" offset="0.277344"/><stop stop-opacity="1" stop-color="rgb(55.332947%, 24.731445%, 70.402527%)" offset="0.28125"/><stop stop-opacity="1" stop-color="rgb(55.587769%, 24.830627%, 70.452881%)" offset="0.285156"/><stop stop-opacity="1" stop-color="rgb(55.84259%, 24.931335%, 70.503235%)" offset="0.289063"/><stop stop-opacity="1" stop-color="rgb(56.097412%, 25.032043%, 70.553589%)" offset="0.292969"/><stop stop-opacity="1" stop-color="rgb(56.352234%, 25.132751%, 70.603943%)" offset="0.296875"/><stop stop-opacity="1" stop-color="rgb(56.607056%, 25.233459%, 70.654297%)" offset="0.300781"/><stop stop-opacity="1" stop-color="rgb(56.861877%, 25.334167%, 70.704651%)" offset="0.304688"/><stop stop-opacity="1" stop-color="rgb(57.116699%, 25.43335%, 70.753479%)" offset="0.308594"/><stop stop-opacity="1" stop-color="rgb(57.371521%, 25.534058%, 70.803833%)" offset="0.3125"/><stop stop-opacity="1" stop-color="rgb(57.626343%, 25.634766%, 70.854187%)" offset="0.316406"/><stop stop-opacity="1" stop-color="rgb(57.881165%, 25.735474%, 70.904541%)" offset="0.320313"/><stop stop-opacity="1" stop-color="rgb(58.135986%, 25.836182%, 70.954895%)" offset="0.324219"/><stop stop-opacity="1" stop-color="rgb(58.390808%, 25.93689%, 71.005249%)" offset="0.328125"/><stop stop-opacity="1" stop-color="rgb(58.644104%, 26.036072%, 71.055603%)" offset="0.332031"/><stop stop-opacity="1" stop-color="rgb(58.898926%, 26.13678%, 71.105957%)" offset="0.335938"/><stop stop-opacity="1" stop-color="rgb(59.153748%, 26.237488%, 71.156311%)" offset="0.339844"/><stop stop-opacity="1" stop-color="rgb(59.408569%, 26.338196%, 71.206665%)" offset="0.34375"/><stop stop-opacity="1" stop-color="rgb(59.663391%, 26.438904%, 71.257019%)" offset="0.347656"/><stop stop-opacity="1" stop-color="rgb(59.918213%, 26.539612%, 71.307373%)" offset="0.351563"/><stop stop-opacity="1" stop-color="rgb(60.173035%, 26.64032%, 71.357727%)" offset="0.355469"/><stop stop-opacity="1" stop-color="rgb(60.427856%, 26.741028%, 71.408081%)" offset="0.359375"/><stop stop-opacity="1" stop-color="rgb(60.682678%, 26.84021%, 71.458435%)" offset="0.363281"/><stop stop-opacity="1" stop-color="rgb(60.9375%, 26.940918%, 71.508789%)" offset="0.367188"/><stop stop-opacity="1" stop-color="rgb(61.192322%, 27.041626%, 71.559143%)" offset="0.371094"/><stop stop-opacity="1" stop-color="rgb(61.447144%, 27.142334%, 71.609497%)" offset="0.375"/><stop stop-opacity="1" stop-color="rgb(61.701965%, 27.243042%, 71.659851%)" offset="0.378906"/><stop stop-opacity="1" stop-color="rgb(61.956787%, 27.34375%, 71.710205%)" offset="0.382813"/><stop stop-opacity="1" stop-color="rgb(62.211609%, 27.442932%, 71.760559%)" offset="0.386719"/><stop stop-opacity="1" stop-color="rgb(62.466431%, 27.54364%, 71.810913%)" offset="0.390625"/><stop stop-opacity="1" stop-color="rgb(62.721252%, 27.644348%, 71.859741%)" offset="0.394531"/><stop stop-opacity="1" stop-color="rgb(62.976074%, 27.745056%, 71.910095%)" offset="0.398438"/><stop stop-opacity="1" stop-color="rgb(63.22937%, 27.845764%, 71.960449%)" offset="0.402344"/><stop stop-opacity="1" stop-color="rgb(63.484192%, 27.946472%, 72.010803%)" offset="0.40625"/><stop stop-opacity="1" stop-color="rgb(63.739014%, 28.045654%, 72.061157%)" offset="0.410156"/><stop stop-opacity="1" stop-color="rgb(63.993835%, 28.146362%, 72.111511%)" offset="0.414063"/><stop stop-opacity="1" stop-color="rgb(64.248657%, 28.24707%, 72.161865%)" offset="0.417969"/><stop stop-opacity="1" stop-color="rgb(64.503479%, 28.347778%, 72.212219%)" offset="0.421875"/><stop stop-opacity="1" stop-color="rgb(64.758301%, 28.448486%, 72.262573%)" offset="0.425781"/><stop stop-opacity="1" stop-color="rgb(65.013123%, 28.549194%, 72.312927%)" offset="0.429688"/><stop stop-opacity="1" stop-color="rgb(65.267944%, 28.649902%, 72.363281%)" offset="0.433594"/><stop stop-opacity="1" stop-color="rgb(65.522766%, 28.75061%, 72.413635%)" offset="0.4375"/><stop stop-opacity="1" stop-color="rgb(65.777588%, 28.849792%, 72.463989%)" offset="0.441406"/><stop stop-opacity="1" stop-color="rgb(66.03241%, 28.9505%, 72.514343%)" offset="0.445312"/><stop stop-opacity="1" stop-color="rgb(66.287231%, 29.051208%, 72.564697%)" offset="0.449219"/><stop stop-opacity="1" stop-color="rgb(66.542053%, 29.151917%, 72.615051%)" offset="0.453125"/><stop stop-opacity="1" stop-color="rgb(66.796875%, 29.252625%, 72.665405%)" offset="0.457031"/><stop stop-opacity="1" stop-color="rgb(67.051697%, 29.353333%, 72.715759%)" offset="0.460938"/><stop stop-opacity="1" stop-color="rgb(67.304993%, 29.452515%, 72.766113%)" offset="0.464844"/><stop stop-opacity="1" stop-color="rgb(67.559814%, 29.553223%, 72.816467%)" offset="0.46875"/><stop stop-opacity="1" stop-color="rgb(67.814636%, 29.653931%, 72.866821%)" offset="0.472656"/><stop stop-opacity="1" stop-color="rgb(68.069458%, 29.754639%, 72.917175%)" offset="0.476562"/><stop stop-opacity="1" stop-color="rgb(68.32428%, 29.855347%, 72.966003%)" offset="0.480469"/><stop stop-opacity="1" stop-color="rgb(68.579102%, 29.956055%, 73.016357%)" offset="0.484375"/><stop stop-opacity="1" stop-color="rgb(68.833923%, 30.055237%, 73.066711%)" offset="0.488281"/><stop stop-opacity="1" stop-color="rgb(69.088745%, 30.155945%, 73.117065%)" offset="0.492188"/><stop stop-opacity="1" stop-color="rgb(69.343567%, 30.256653%, 73.167419%)" offset="0.496094"/><stop stop-opacity="1" stop-color="rgb(69.598389%, 30.357361%, 73.217773%)" offset="0.5"/><stop stop-opacity="1" stop-color="rgb(69.85321%, 30.458069%, 73.268127%)" offset="0.503906"/><stop stop-opacity="1" stop-color="rgb(70.108032%, 30.558777%, 73.318481%)" offset="0.507812"/><stop stop-opacity="1" stop-color="rgb(70.362854%, 30.659485%, 73.368835%)" offset="0.511719"/><stop stop-opacity="1" stop-color="rgb(70.617676%, 30.760193%, 73.419189%)" offset="0.515625"/><stop stop-opacity="1" stop-color="rgb(70.872498%, 30.859375%, 73.469543%)" offset="0.519531"/><stop stop-opacity="1" stop-color="rgb(71.127319%, 30.960083%, 73.519897%)" offset="0.523438"/><stop stop-opacity="1" stop-color="rgb(71.382141%, 31.060791%, 73.570251%)" offset="0.527344"/><stop stop-opacity="1" stop-color="rgb(71.636963%, 31.161499%, 73.620605%)" offset="0.53125"/><stop stop-opacity="1" stop-color="rgb(71.890259%, 31.262207%, 73.670959%)" offset="0.535156"/><stop stop-opacity="1" stop-color="rgb(72.145081%, 31.362915%, 73.721313%)" offset="0.539063"/><stop stop-opacity="1" stop-color="rgb(72.399902%, 31.462097%, 73.771667%)" offset="0.542969"/><stop stop-opacity="1" stop-color="rgb(72.654724%, 31.562805%, 73.822021%)" offset="0.546875"/><stop stop-opacity="1" stop-color="rgb(72.909546%, 31.663513%, 73.872375%)" offset="0.550781"/><stop stop-opacity="1" stop-color="rgb(73.164368%, 31.764221%, 73.922729%)" offset="0.554688"/><stop stop-opacity="1" stop-color="rgb(73.419189%, 31.864929%, 73.973083%)" offset="0.558594"/><stop stop-opacity="1" stop-color="rgb(73.674011%, 31.965637%, 74.023438%)" offset="0.5625"/><stop stop-opacity="1" stop-color="rgb(73.928833%, 32.064819%, 74.072266%)" offset="0.566406"/><stop stop-opacity="1" stop-color="rgb(74.183655%, 32.165527%, 74.12262%)" offset="0.570313"/><stop stop-opacity="1" stop-color="rgb(74.438477%, 32.266235%, 74.172974%)" offset="0.574219"/><stop stop-opacity="1" stop-color="rgb(74.693298%, 32.366943%, 74.223328%)" offset="0.578125"/><stop stop-opacity="1" stop-color="rgb(74.94812%, 32.467651%, 74.273682%)" offset="0.582031"/><stop stop-opacity="1" stop-color="rgb(75.202942%, 32.568359%, 74.324036%)" offset="0.585938"/><stop stop-opacity="1" stop-color="rgb(75.457764%, 32.669067%, 74.37439%)" offset="0.589844"/><stop stop-opacity="1" stop-color="rgb(75.712585%, 32.769775%, 74.424744%)" offset="0.59375"/><stop stop-opacity="1" stop-color="rgb(75.965881%, 32.868958%, 74.475098%)" offset="0.597656"/><stop stop-opacity="1" stop-color="rgb(76.220703%, 32.969666%, 74.525452%)" offset="0.601563"/><stop stop-opacity="1" stop-color="rgb(76.475525%, 33.070374%, 74.575806%)" offset="0.605469"/><stop stop-opacity="1" stop-color="rgb(76.730347%, 33.171082%, 74.62616%)" offset="0.609375"/><stop stop-opacity="1" stop-color="rgb(76.985168%, 33.27179%, 74.676514%)" offset="0.613281"/><stop stop-opacity="1" stop-color="rgb(77.23999%, 33.372498%, 74.726868%)" offset="0.617188"/><stop stop-opacity="1" stop-color="rgb(77.494812%, 33.47168%, 74.777222%)" offset="0.621094"/><stop stop-opacity="1" stop-color="rgb(77.749634%, 33.572388%, 74.827576%)" offset="0.625"/><stop stop-opacity="1" stop-color="rgb(78.004456%, 33.673096%, 74.87793%)" offset="0.628906"/><stop stop-opacity="1" stop-color="rgb(78.259277%, 33.773804%, 74.928284%)" offset="0.632813"/><stop stop-opacity="1" stop-color="rgb(78.514099%, 33.874512%, 74.978638%)" offset="0.636719"/><stop stop-opacity="1" stop-color="rgb(78.768921%, 33.97522%, 75.028992%)" offset="0.640625"/><stop stop-opacity="1" stop-color="rgb(79.023743%, 34.074402%, 75.079346%)" offset="0.644531"/><stop stop-opacity="1" stop-color="rgb(79.278564%, 34.17511%, 75.1297%)" offset="0.648438"/><stop stop-opacity="1" stop-color="rgb(79.533386%, 34.275818%, 75.178528%)" offset="0.652344"/><stop stop-opacity="1" stop-color="rgb(79.788208%, 34.376526%, 75.228882%)" offset="0.65625"/><stop stop-opacity="1" stop-color="rgb(80.04303%, 34.477234%, 75.279236%)" offset="0.660156"/><stop stop-opacity="1" stop-color="rgb(80.297852%, 34.577942%, 75.32959%)" offset="0.664063"/><stop stop-opacity="1" stop-color="rgb(80.551147%, 34.67865%, 75.379944%)" offset="0.667969"/><stop stop-opacity="1" stop-color="rgb(80.805969%, 34.779358%, 75.430298%)" offset="0.671875"/><stop stop-opacity="1" stop-color="rgb(81.060791%, 34.87854%, 75.480652%)" offset="0.675781"/><stop stop-opacity="1" stop-color="rgb(81.315613%, 34.979248%, 75.531006%)" offset="0.679688"/><stop stop-opacity="1" stop-color="rgb(81.570435%, 35.079956%, 75.58136%)" offset="0.683594"/><stop stop-opacity="1" stop-color="rgb(81.825256%, 35.180664%, 75.631714%)" offset="0.6875"/><stop stop-opacity="1" stop-color="rgb(82.080078%, 35.281372%, 75.682068%)" offset="0.691406"/><stop stop-opacity="1" stop-color="rgb(82.3349%, 35.38208%, 75.732422%)" offset="0.695313"/><stop stop-opacity="1" stop-color="rgb(82.589722%, 35.481262%, 75.782776%)" offset="0.699219"/><stop stop-opacity="1" stop-color="rgb(82.844543%, 35.58197%, 75.83313%)" offset="0.703125"/><stop stop-opacity="1" stop-color="rgb(83.099365%, 35.682678%, 75.883484%)" offset="0.707031"/><stop stop-opacity="1" stop-color="rgb(83.354187%, 35.783386%, 75.933838%)" offset="0.710938"/><stop stop-opacity="1" stop-color="rgb(83.609009%, 35.884094%, 75.984192%)" offset="0.714844"/><stop stop-opacity="1" stop-color="rgb(83.863831%, 35.984802%, 76.034546%)" offset="0.71875"/><stop stop-opacity="1" stop-color="rgb(84.118652%, 36.083984%, 76.0849%)" offset="0.722656"/><stop stop-opacity="1" stop-color="rgb(84.373474%, 36.184692%, 76.135254%)" offset="0.726562"/><stop stop-opacity="1" stop-color="rgb(84.62677%, 36.2854%, 76.184082%)" offset="0.730469"/><stop stop-opacity="1" stop-color="rgb(84.881592%, 36.386108%, 76.234436%)" offset="0.734375"/><stop stop-opacity="1" stop-color="rgb(85.136414%, 36.486816%, 76.28479%)" offset="0.738281"/><stop stop-opacity="1" stop-color="rgb(85.391235%, 36.587524%, 76.335144%)" offset="0.742188"/><stop stop-opacity="1" stop-color="rgb(85.646057%, 36.688232%, 76.385498%)" offset="0.746094"/><stop stop-opacity="1" stop-color="rgb(85.900879%, 36.78894%, 76.435852%)" offset="0.75"/><stop stop-opacity="1" stop-color="rgb(86.155701%, 36.888123%, 76.486206%)" offset="0.753906"/><stop stop-opacity="1" stop-color="rgb(86.410522%, 36.988831%, 76.53656%)" offset="0.757812"/><stop stop-opacity="1" stop-color="rgb(86.665344%, 37.089539%, 76.586914%)" offset="0.761719"/><stop stop-opacity="1" stop-color="rgb(86.920166%, 37.190247%, 76.637268%)" offset="0.765625"/><stop stop-opacity="1" stop-color="rgb(87.174988%, 37.290955%, 76.687622%)" offset="0.769531"/><stop stop-opacity="1" stop-color="rgb(87.42981%, 37.391663%, 76.737976%)" offset="0.773438"/><stop stop-opacity="1" stop-color="rgb(87.684631%, 37.490845%, 76.78833%)" offset="0.777344"/><stop stop-opacity="1" stop-color="rgb(87.939453%, 37.591553%, 76.838684%)" offset="0.78125"/><stop stop-opacity="1" stop-color="rgb(88.194275%, 37.692261%, 76.889038%)" offset="0.785156"/><stop stop-opacity="1" stop-color="rgb(88.449097%, 37.792969%, 76.939392%)" offset="0.789062"/><stop stop-opacity="1" stop-color="rgb(88.703918%, 37.893677%, 76.989746%)" offset="0.792969"/><stop stop-opacity="1" stop-color="rgb(88.95874%, 37.994385%, 77.0401%)" offset="0.796875"/><stop stop-opacity="1" stop-color="rgb(89.212036%, 38.093567%, 77.090454%)" offset="0.800781"/><stop stop-opacity="1" stop-color="rgb(89.466858%, 38.194275%, 77.140808%)" offset="0.804688"/><stop stop-opacity="1" stop-color="rgb(89.72168%, 38.294983%, 77.191162%)" offset="0.808594"/><stop stop-opacity="1" stop-color="rgb(89.976501%, 38.395691%, 77.241516%)" offset="0.8125"/><stop stop-opacity="1" stop-color="rgb(90.231323%, 38.496399%, 77.290344%)" offset="0.816406"/><stop stop-opacity="1" stop-color="rgb(90.486145%, 38.597107%, 77.340698%)" offset="0.820312"/><stop stop-opacity="1" stop-color="rgb(90.740967%, 38.697815%, 77.391052%)" offset="0.824219"/><stop stop-opacity="1" stop-color="rgb(90.995789%, 38.798523%, 77.441406%)" offset="0.828125"/><stop stop-opacity="1" stop-color="rgb(91.25061%, 38.897705%, 77.49176%)" offset="0.832031"/><stop stop-opacity="1" stop-color="rgb(91.505432%, 38.998413%, 77.542114%)" offset="0.835938"/><stop stop-opacity="1" stop-color="rgb(91.760254%, 39.099121%, 77.592468%)" offset="0.839844"/><stop stop-opacity="1" stop-color="rgb(92.015076%, 39.199829%, 77.642822%)" offset="0.84375"/><stop stop-opacity="1" stop-color="rgb(92.269897%, 39.300537%, 77.693176%)" offset="0.847656"/><stop stop-opacity="1" stop-color="rgb(92.524719%, 39.401245%, 77.74353%)" offset="0.851562"/><stop stop-opacity="1" stop-color="rgb(92.779541%, 39.500427%, 77.793884%)" offset="0.855469"/><stop stop-opacity="1" stop-color="rgb(93.034363%, 39.601135%, 77.844238%)" offset="0.859375"/><stop stop-opacity="1" stop-color="rgb(93.289185%, 39.701843%, 77.894592%)" offset="0.863281"/><stop stop-opacity="1" stop-color="rgb(93.544006%, 39.802551%, 77.944946%)" offset="0.867188"/><stop stop-opacity="1" stop-color="rgb(93.797302%, 39.903259%, 77.9953%)" offset="0.871094"/><stop stop-opacity="1" stop-color="rgb(94.052124%, 40.003967%, 78.045654%)" offset="0.875"/><stop stop-opacity="1" stop-color="rgb(94.306946%, 40.103149%, 78.096008%)" offset="0.878906"/><stop stop-opacity="1" stop-color="rgb(94.561768%, 40.203857%, 78.146362%)" offset="0.882812"/><stop stop-opacity="1" stop-color="rgb(94.816589%, 40.304565%, 78.196716%)" offset="0.886719"/><stop stop-opacity="1" stop-color="rgb(95.071411%, 40.405273%, 78.24707%)" offset="0.890625"/><stop stop-opacity="1" stop-color="rgb(95.326233%, 40.505981%, 78.297424%)" offset="0.894531"/><stop stop-opacity="1" stop-color="rgb(95.581055%, 40.606689%, 78.347778%)" offset="0.898438"/><stop stop-opacity="1" stop-color="rgb(95.835876%, 40.707397%, 78.396606%)" offset="0.902344"/><stop stop-opacity="1" stop-color="rgb(96.090698%, 40.808105%, 78.44696%)" offset="0.90625"/><stop stop-opacity="1" stop-color="rgb(96.34552%, 40.907288%, 78.497314%)" offset="0.910156"/><stop stop-opacity="1" stop-color="rgb(96.600342%, 41.007996%, 78.547668%)" offset="0.914062"/><stop stop-opacity="1" stop-color="rgb(96.855164%, 41.108704%, 78.598022%)" offset="0.917969"/><stop stop-opacity="1" stop-color="rgb(97.109985%, 41.209412%, 78.648376%)" offset="0.921875"/><stop stop-opacity="1" stop-color="rgb(97.364807%, 41.31012%, 78.69873%)" offset="0.925781"/><stop stop-opacity="1" stop-color="rgb(97.619629%, 41.410828%, 78.749084%)" offset="0.929688"/><stop stop-opacity="1" stop-color="rgb(97.872925%, 41.51001%, 78.799438%)" offset="0.933594"/><stop stop-opacity="1" stop-color="rgb(98.127747%, 41.610718%, 78.849792%)" offset="0.9375"/><stop stop-opacity="1" stop-color="rgb(98.382568%, 41.711426%, 78.900146%)" offset="0.941406"/><stop stop-opacity="1" stop-color="rgb(98.63739%, 41.812134%, 78.9505%)" offset="0.945312"/><stop stop-opacity="1" stop-color="rgb(98.892212%, 41.912842%, 79.000854%)" offset="0.949219"/><stop stop-opacity="1" stop-color="rgb(99.147034%, 42.01355%, 79.051208%)" offset="0.953125"/><stop stop-opacity="1" stop-color="rgb(99.401855%, 42.112732%, 79.101562%)" offset="0.957031"/><stop stop-opacity="1" stop-color="rgb(99.656677%, 42.21344%, 79.151917%)" offset="0.960938"/><stop stop-opacity="1" stop-color="rgb(99.827576%, 42.280579%, 79.185486%)" offset="0.96875"/><stop stop-opacity="1" stop-color="rgb(100%, 42.349243%, 79.219055%)" offset="1"/></linearGradient><clipPath id="0aad33f28a"><rect x="0" width="1237" y="0" height="267"/></clipPath><clipPath id="2b514c29f7"><rect x="0" width="1237" y="0" height="267"/></clipPath><clipPath id="41e92eda4a"><rect x="0" width="1237" y="0" height="268"/></clipPath></defs><g clip-path="url(#f670486577)"><path fill="#ffffff" d="M 0.5 0 L 1236.5 0 L 1236.5 412 L 0.5 412 Z M 0.5 0 " fill-opacity="1" fill-rule="nonzero"/><path fill="#ffffff" d="M 0.5 0 L 1236.5 0 L 1236.5 412 L 0.5 412 Z M 0.5 0 " fill-opacity="1" fill-rule="nonzero"/></g><g transform="matrix(1, 0, 0, 1, 105, 0)"><g clip-path="url(#fe5eb18404)"><g clip-path="url(#b69a2ca258)"><g fill="#6c32ad" fill-opacity="1"><g transform="translate(0.367327, 244.237058)"><g><path d="M 45.625 -41.9375 L 143.203125 -41.9375 L 138.71875 -71.734375 L 50.109375 -71.734375 Z M 93.890625 -124.75 L 121.578125 -60.65625 L 121.046875 -51.171875 L 144.796875 0 L 187.515625 0 L 93.890625 -195.421875 L 0.265625 0 L 42.71875 0 L 66.984375 -52.75 L 66.203125 -61.1875 Z M 93.890625 -124.75 "/></g></g></g></g><g fill="#6c32ad" fill-opacity="1"><g transform="translate(171.525525, 244.237058)"><g><path d="M 11.078125 8.4375 C 11.773438 18.988281 14.628906 28.351562 19.640625 36.53125 C 24.660156 44.707031 31.914062 51.035156 41.40625 55.515625 C 50.894531 59.992188 62.675781 62.234375 76.75 62.234375 C 88.351562 62.234375 99.078125 59.992188 108.921875 55.515625 C 118.765625 51.035156 126.628906 43.957031 132.515625 34.28125 C 138.410156 24.613281 141.359375 12.304688 141.359375 -2.640625 L 141.359375 -121.3125 L 108.390625 -121.3125 L 108.390625 -2.640625 C 108.390625 5.628906 106.851562 12.488281 103.78125 17.9375 C 100.707031 23.382812 96.660156 27.425781 91.640625 30.0625 C 86.628906 32.695312 81.3125 34.015625 75.6875 34.015625 C 69.539062 34.015625 64.179688 32.957031 59.609375 30.84375 C 55.035156 28.738281 51.425781 25.796875 48.78125 22.015625 C 46.144531 18.234375 44.742188 13.707031 44.578125 8.4375 Z M 8.703125 -61.71875 C 8.703125 -48.351562 11.425781 -37.054688 16.875 -27.828125 C 22.332031 -18.597656 29.539062 -11.609375 38.5 -6.859375 C 47.46875 -2.109375 56.960938 0.265625 66.984375 0.265625 C 77.179688 0.265625 86.191406 -2.148438 94.015625 -6.984375 C 101.835938 -11.816406 107.988281 -18.894531 112.46875 -28.21875 C 116.957031 -37.539062 119.203125 -48.707031 119.203125 -61.71875 C 119.203125 -74.90625 116.957031 -86.113281 112.46875 -95.34375 C 107.988281 -104.570312 101.835938 -111.644531 94.015625 -116.5625 C 86.191406 -121.488281 77.179688 -123.953125 66.984375 -123.953125 C 56.960938 -123.953125 47.46875 -121.578125 38.5 -116.828125 C 29.539062 -112.085938 22.332031 -105.097656 16.875 -95.859375 C 11.425781 -86.628906 8.703125 -75.25 8.703125 -61.71875 Z M 44.046875 -61.71875 C 44.046875 -69.101562 45.539062 -75.300781 48.53125 -80.3125 C 51.519531 -85.320312 55.5625 -89.144531 60.65625 -91.78125 C 65.757812 -94.414062 71.210938 -95.734375 77.015625 -95.734375 C 80.878906 -95.734375 84.65625 -94.984375 88.34375 -93.484375 C 92.039062 -91.992188 95.425781 -89.84375 98.5 -87.03125 C 101.582031 -84.21875 104 -80.703125 105.75 -76.484375 C 107.507812 -72.265625 108.390625 -67.34375 108.390625 -61.71875 C 108.390625 -54.332031 106.851562 -48.132812 103.78125 -43.125 C 100.707031 -38.113281 96.75 -34.332031 91.90625 -31.78125 C 87.070312 -29.226562 82.109375 -27.953125 77.015625 -27.953125 C 71.210938 -27.953125 65.757812 -29.269531 60.65625 -31.90625 C 55.5625 -34.550781 51.519531 -38.378906 48.53125 -43.390625 C 45.539062 -48.398438 44.046875 -54.507812 44.046875 -61.71875 Z M 44.046875 -61.71875 "/></g></g></g><g fill="#6c32ad" fill-opacity="1"><g transform="translate(312.882685, 244.237058)"><g><path d="M 50.375 -121.3125 L 16.875 -121.3125 L 16.875 0 L 50.375 0 Z M 85.984375 -85.71875 L 101.53125 -114.71875 C 99.070312 -117.882812 95.863281 -120.257812 91.90625 -121.84375 C 87.957031 -123.425781 83.785156 -124.21875 79.390625 -124.21875 C 73.054688 -124.21875 66.898438 -121.972656 60.921875 -117.484375 C 54.941406 -113.003906 50.101562 -107.023438 46.40625 -99.546875 C 42.71875 -92.078125 40.875 -83.507812 40.875 -73.84375 L 50.375 -64.34375 C 50.375 -70.144531 51.117188 -75.113281 52.609375 -79.25 C 54.109375 -83.382812 56.351562 -86.59375 59.34375 -88.875 C 62.332031 -91.164062 65.9375 -92.3125 70.15625 -92.3125 C 73.664062 -92.3125 76.609375 -91.738281 78.984375 -90.59375 C 81.359375 -89.445312 83.691406 -87.820312 85.984375 -85.71875 Z M 85.984375 -85.71875 "/></g></g></g><g fill="#6c32ad" fill-opacity="1"><g transform="translate(399.384799, 244.237058)"><g><path d="M 8.703125 -60.65625 C 8.703125 -48.175781 11.644531 -37.144531 17.53125 -27.5625 C 23.425781 -17.976562 31.425781 -10.546875 41.53125 -5.265625 C 51.644531 0.00390625 63.117188 2.640625 75.953125 2.640625 C 88.785156 2.640625 100.253906 0.00390625 110.359375 -5.265625 C 120.472656 -10.546875 128.472656 -17.976562 134.359375 -27.5625 C 140.253906 -37.144531 143.203125 -48.175781 143.203125 -60.65625 C 143.203125 -73.3125 140.253906 -84.382812 134.359375 -93.875 C 128.472656 -103.375 120.472656 -110.757812 110.359375 -116.03125 C 100.253906 -121.3125 88.785156 -123.953125 75.953125 -123.953125 C 63.117188 -123.953125 51.644531 -121.3125 41.53125 -116.03125 C 31.425781 -110.757812 23.425781 -103.375 17.53125 -93.875 C 11.644531 -84.382812 8.703125 -73.3125 8.703125 -60.65625 Z M 43.515625 -60.65625 C 43.515625 -67.507812 44.960938 -73.570312 47.859375 -78.84375 C 50.765625 -84.125 54.675781 -88.171875 59.59375 -90.984375 C 64.519531 -93.796875 69.972656 -95.203125 75.953125 -95.203125 C 81.929688 -95.203125 87.378906 -93.796875 92.296875 -90.984375 C 97.222656 -88.171875 101.132812 -84.125 104.03125 -78.84375 C 106.9375 -73.570312 108.390625 -67.507812 108.390625 -60.65625 C 108.390625 -53.800781 106.9375 -47.78125 104.03125 -42.59375 C 101.132812 -37.40625 97.222656 -33.359375 92.296875 -30.453125 C 87.378906 -27.554688 81.929688 -26.109375 75.953125 -26.109375 C 69.972656 -26.109375 64.519531 -27.554688 59.59375 -30.453125 C 54.675781 -33.359375 50.765625 -37.40625 47.859375 -42.59375 C 44.960938 -47.78125 43.515625 -53.800781 43.515625 -60.65625 Z M 43.515625 -60.65625 "/></g></g></g><g fill="#3ec2cf" fill-opacity="1"><g transform="translate(534.947867, 244.237058)"><g><path d="M 20.046875 -184.609375 L 20.046875 0 L 131.34375 0 L 131.34375 -32.96875 L 57.765625 -32.96875 L 57.765625 -184.609375 Z M 20.046875 -184.609375 "/></g></g></g><g fill="#3ec2cf" fill-opacity="1"><g transform="translate(651.514777, 244.237058)"><g><path d="M 20.046875 -184.609375 L 20.046875 0 L 58.28125 0 L 58.28125 -184.609375 Z M 20.046875 -184.609375 "/></g></g></g><g fill="#3ec2cf" fill-opacity="1"><g transform="translate(713.226601, 244.237058)"><g><path d="M 151.390625 -184.609375 L 151.390625 -70.15625 L 20.046875 -193.84375 L 20.046875 0 L 56.4375 0 L 56.4375 -114.453125 L 187.78125 9.234375 L 187.78125 -184.609375 Z M 151.390625 -184.609375 "/></g></g></g><g fill="#3ec2cf" fill-opacity="1"><g transform="translate(904.69172, 244.237058)"><g><path d="M 50.375 -92.3125 C 50.375 -104.613281 53.140625 -115.25 58.671875 -124.21875 C 64.210938 -133.1875 71.46875 -140.085938 80.4375 -144.921875 C 89.40625 -149.753906 99.164062 -152.171875 109.71875 -152.171875 C 118.507812 -152.171875 126.332031 -151.023438 133.1875 -148.734375 C 140.039062 -146.453125 146.238281 -143.378906 151.78125 -139.515625 C 157.320312 -135.648438 162.113281 -131.429688 166.15625 -126.859375 L 166.15625 -169.3125 C 158.59375 -175.289062 150.367188 -179.953125 141.484375 -183.296875 C 132.609375 -186.640625 121.40625 -188.3125 107.875 -188.3125 C 93.800781 -188.3125 80.742188 -186.023438 68.703125 -181.453125 C 56.660156 -176.878906 46.195312 -170.285156 37.3125 -161.671875 C 28.4375 -153.054688 21.582031 -142.898438 16.75 -131.203125 C 11.914062 -119.515625 9.5 -106.550781 9.5 -92.3125 C 9.5 -78.0625 11.914062 -65.09375 16.75 -53.40625 C 21.582031 -41.71875 28.4375 -31.5625 37.3125 -22.9375 C 46.195312 -14.320312 56.660156 -7.726562 68.703125 -3.15625 C 80.742188 1.402344 93.800781 3.6875 107.875 3.6875 C 121.40625 3.6875 132.609375 2.019531 141.484375 -1.3125 C 150.367188 -4.65625 158.59375 -9.316406 166.15625 -15.296875 L 166.15625 -57.765625 C 162.113281 -53.191406 157.320312 -48.96875 151.78125 -45.09375 C 146.238281 -41.226562 140.039062 -38.148438 133.1875 -35.859375 C 126.332031 -33.578125 118.507812 -32.4375 109.71875 -32.4375 C 99.164062 -32.4375 89.40625 -34.851562 80.4375 -39.6875 C 71.46875 -44.519531 64.210938 -51.460938 58.671875 -60.515625 C 53.140625 -69.578125 50.375 -80.175781 50.375 -92.3125 Z M 50.375 -92.3125 "/></g></g></g></g></g><g clip-path="url(#3e5125e320)"><g clip-path="url(#a931a10843)"><g transform="matrix(1, 0, 0, 1, 46, 32)"><g clip-path="url(#f9825e0187)"><g clip-path="url(#c88fc473f5)"><g clip-path="url(#9643a7b93b)"><path fill="#6c32ad" d="M 0.941406 0.957031 L 36.0625 0.957031 L 36.0625 355.324219 L 0.941406 355.324219 Z M 0.941406 0.957031 " fill-opacity="1" fill-rule="nonzero"/></g></g></g></g></g></g><g clip-path="url(#01a01922cf)"><g transform="matrix(1, 0, 0, 1, 0.000000000000000111, 144)"><g clip-path="url(#41e92eda4a)"><g fill="#6c32ad" fill-opacity="1"><g transform="translate(119.718103, 223.334844)"><g><path d="M 27.734375 -21.515625 L 27.734375 0 L 38.03125 0 L 38.03125 -22.59375 C 38.03125 -26.84375 37.003906 -30.15625 34.953125 -32.53125 C 32.910156 -34.914062 29.789062 -36.109375 25.59375 -36.109375 C 23.082031 -36.109375 20.941406 -35.582031 19.171875 -34.53125 C 17.398438 -33.488281 15.976562 -31.96875 14.90625 -29.96875 L 14.90625 -35.34375 L 4.921875 -35.34375 L 4.921875 0 L 14.90625 0 L 14.90625 -21.515625 C 14.90625 -23.003906 15.1875 -24.285156 15.75 -25.359375 C 16.3125 -26.429688 17.128906 -27.257812 18.203125 -27.84375 C 19.285156 -28.4375 20.519531 -28.734375 21.90625 -28.734375 C 23.945312 -28.734375 25.425781 -28.117188 26.34375 -26.890625 C 27.269531 -25.660156 27.734375 -23.867188 27.734375 -21.515625 Z M 27.734375 -21.515625 "/></g></g></g><g fill="#6c32ad" fill-opacity="1"><g transform="translate(157.902889, 223.334844)"><g><path d="M 27.734375 -21.515625 L 27.734375 0 L 38.03125 0 L 38.03125 -22.59375 C 38.03125 -26.84375 37.003906 -30.15625 34.953125 -32.53125 C 32.910156 -34.914062 29.789062 -36.109375 25.59375 -36.109375 C 23.082031 -36.109375 20.941406 -35.582031 19.171875 -34.53125 C 17.398438 -33.488281 15.976562 -31.96875 14.90625 -29.96875 L 14.90625 -35.34375 L 4.921875 -35.34375 L 4.921875 0 L 14.90625 0 L 14.90625 -21.515625 C 14.90625 -23.003906 15.1875 -24.285156 15.75 -25.359375 C 16.3125 -26.429688 17.128906 -27.257812 18.203125 -27.84375 C 19.285156 -28.4375 20.519531 -28.734375 21.90625 -28.734375 C 23.945312 -28.734375 25.425781 -28.117188 26.34375 -26.890625 C 27.269531 -25.660156 27.734375 -23.867188 27.734375 -21.515625 Z M 27.734375 -21.515625 "/></g></g></g><g fill="#6c32ad" fill-opacity="1"><g transform="translate(196.087675, 223.334844)"><g><path d="M 2.53125 -17.671875 C 2.53125 -14.035156 3.390625 -10.820312 5.109375 -8.03125 C 6.828125 -5.238281 9.15625 -3.070312 12.09375 -1.53125 C 15.039062 0 18.382812 0.765625 22.125 0.765625 C 25.863281 0.765625 29.207031 0 32.15625 -1.53125 C 35.101562 -3.070312 37.429688 -5.238281 39.140625 -8.03125 C 40.859375 -10.820312 41.71875 -14.035156 41.71875 -17.671875 C 41.71875 -21.359375 40.859375 -24.582031 39.140625 -27.34375 C 37.429688 -30.113281 35.101562 -32.265625 32.15625 -33.796875 C 29.207031 -35.335938 25.863281 -36.109375 22.125 -36.109375 C 18.382812 -36.109375 15.039062 -35.335938 12.09375 -33.796875 C 9.15625 -32.265625 6.828125 -30.113281 5.109375 -27.34375 C 3.390625 -24.582031 2.53125 -21.359375 2.53125 -17.671875 Z M 12.671875 -17.671875 C 12.671875 -19.671875 13.09375 -21.4375 13.9375 -22.96875 C 14.789062 -24.507812 15.929688 -25.6875 17.359375 -26.5 C 18.796875 -27.320312 20.382812 -27.734375 22.125 -27.734375 C 23.875 -27.734375 25.460938 -27.320312 26.890625 -26.5 C 28.328125 -25.6875 29.46875 -24.507812 30.3125 -22.96875 C 31.15625 -21.4375 31.578125 -19.671875 31.578125 -17.671875 C 31.578125 -15.671875 31.15625 -13.914062 30.3125 -12.40625 C 29.46875 -10.894531 28.328125 -9.71875 26.890625 -8.875 C 25.460938 -8.03125 23.875 -7.609375 22.125 -7.609375 C 20.382812 -7.609375 18.796875 -8.03125 17.359375 -8.875 C 15.929688 -9.71875 14.789062 -10.894531 13.9375 -12.40625 C 13.09375 -13.914062 12.671875 -15.671875 12.671875 -17.671875 Z M 12.671875 -17.671875 "/></g></g></g><g fill="#6c32ad" fill-opacity="1"><g transform="translate(235.578603, 223.334844)"><g><path d="M -0.15625 -35.34375 L 19.203125 3.6875 L 38.578125 -35.34375 L 27.890625 -35.34375 L 19.203125 -14.0625 L 10.53125 -35.34375 Z M -0.15625 -35.34375 "/></g></g></g><g fill="#6c32ad" fill-opacity="1"><g transform="translate(269.230316, 223.334844)"><g><path d="M 11.984375 -10.984375 C 11.984375 -12.015625 12.210938 -12.875 12.671875 -13.5625 C 13.140625 -14.25 13.859375 -14.785156 14.828125 -15.171875 C 15.804688 -15.554688 17.0625 -15.75 18.59375 -15.75 C 20.488281 -15.75 22.296875 -15.492188 24.015625 -14.984375 C 25.734375 -14.472656 27.28125 -13.703125 28.65625 -12.671875 L 28.65625 -17.296875 C 28.144531 -17.910156 27.300781 -18.546875 26.125 -19.203125 C 24.945312 -19.867188 23.5 -20.429688 21.78125 -20.890625 C 20.0625 -21.359375 18.078125 -21.59375 15.828125 -21.59375 C 11.421875 -21.59375 8.015625 -20.59375 5.609375 -18.59375 C 3.203125 -16.59375 2 -13.878906 2 -10.453125 C 2 -8.046875 2.570312 -6.007812 3.71875 -4.34375 C 4.875 -2.675781 6.398438 -1.40625 8.296875 -0.53125 C 10.191406 0.332031 12.242188 0.765625 14.453125 0.765625 C 16.597656 0.765625 18.65625 0.382812 20.625 -0.375 C 22.601562 -1.144531 24.21875 -2.296875 25.46875 -3.828125 C 26.726562 -5.367188 27.359375 -7.269531 27.359375 -9.53125 L 26.125 -14.140625 C 26.125 -12.453125 25.738281 -11.003906 24.96875 -9.796875 C 24.207031 -8.585938 23.210938 -7.664062 21.984375 -7.03125 C 20.753906 -6.394531 19.367188 -6.078125 17.828125 -6.078125 C 16.753906 -6.078125 15.769531 -6.265625 14.875 -6.640625 C 13.976562 -7.023438 13.269531 -7.585938 12.75 -8.328125 C 12.238281 -9.078125 11.984375 -9.960938 11.984375 -10.984375 Z M 8.140625 -25.359375 C 8.648438 -25.710938 9.441406 -26.144531 10.515625 -26.65625 C 11.597656 -27.175781 12.878906 -27.613281 14.359375 -27.96875 C 15.847656 -28.332031 17.414062 -28.515625 19.0625 -28.515625 C 20.132812 -28.515625 21.101562 -28.410156 21.96875 -28.203125 C 22.84375 -27.992188 23.597656 -27.660156 24.234375 -27.203125 C 24.878906 -26.742188 25.351562 -26.164062 25.65625 -25.46875 C 25.96875 -24.78125 26.125 -23.945312 26.125 -22.96875 L 26.125 0 L 35.734375 0 L 35.734375 -25.046875 C 35.734375 -27.453125 35.066406 -29.488281 33.734375 -31.15625 C 32.398438 -32.820312 30.554688 -34.085938 28.203125 -34.953125 C 25.847656 -35.828125 23.160156 -36.265625 20.140625 -36.265625 C 16.859375 -36.265625 13.882812 -35.816406 11.21875 -34.921875 C 8.550781 -34.023438 6.296875 -33.09375 4.453125 -32.125 Z M 8.140625 -25.359375 "/></g></g></g><g fill="#6c32ad" fill-opacity="1"><g transform="translate(304.495489, 223.334844)"><g><path d="M 12.453125 -17.671875 C 12.453125 -19.671875 12.910156 -21.4375 13.828125 -22.96875 C 14.753906 -24.507812 16 -25.726562 17.5625 -26.625 C 19.125 -27.519531 20.851562 -27.96875 22.75 -27.96875 C 24.175781 -27.96875 25.609375 -27.738281 27.046875 -27.28125 C 28.484375 -26.820312 29.800781 -26.164062 31 -25.3125 C 32.207031 -24.46875 33.117188 -23.484375 33.734375 -22.359375 L 33.734375 -32.578125 C 32.503906 -33.660156 30.898438 -34.519531 28.921875 -35.15625 C 26.953125 -35.789062 24.660156 -36.109375 22.046875 -36.109375 C 18.304688 -36.109375 14.9375 -35.335938 11.9375 -33.796875 C 8.945312 -32.265625 6.59375 -30.113281 4.875 -27.34375 C 3.164062 -24.582031 2.3125 -21.359375 2.3125 -17.671875 C 2.3125 -14.035156 3.164062 -10.820312 4.875 -8.03125 C 6.59375 -5.238281 8.945312 -3.070312 11.9375 -1.53125 C 14.9375 0 18.304688 0.765625 22.046875 0.765625 C 24.660156 0.765625 26.953125 0.445312 28.921875 -0.1875 C 30.898438 -0.832031 32.503906 -1.71875 33.734375 -2.84375 L 33.734375 -13.0625 C 33.117188 -11.9375 32.234375 -10.953125 31.078125 -10.109375 C 29.929688 -9.265625 28.640625 -8.597656 27.203125 -8.109375 C 25.765625 -7.617188 24.28125 -7.375 22.75 -7.375 C 20.851562 -7.375 19.125 -7.804688 17.5625 -8.671875 C 16 -9.546875 14.753906 -10.75 13.828125 -12.28125 C 12.910156 -13.820312 12.453125 -15.617188 12.453125 -17.671875 Z M 12.453125 -17.671875 "/></g></g></g><g fill="#6c32ad" fill-opacity="1"><g transform="translate(337.302051, 223.334844)"><g><path d="M 4.453125 -49.03125 C 4.453125 -47.4375 5.039062 -46.101562 6.21875 -45.03125 C 7.394531 -43.957031 8.804688 -43.421875 10.453125 -43.421875 C 12.085938 -43.421875 13.484375 -43.957031 14.640625 -45.03125 C 15.796875 -46.101562 16.375 -47.4375 16.375 -49.03125 C 16.375 -50.664062 15.796875 -52.007812 14.640625 -53.0625 C 13.484375 -54.113281 12.085938 -54.640625 10.453125 -54.640625 C 8.804688 -54.640625 7.394531 -54.113281 6.21875 -53.0625 C 5.039062 -52.007812 4.453125 -50.664062 4.453125 -49.03125 Z M 5.53125 -35.34375 L 5.53125 0 L 15.21875 0 L 15.21875 -35.34375 Z M 5.53125 -35.34375 "/></g></g></g><g fill="#6c32ad" fill-opacity="1"><g transform="translate(353.359295, 223.334844)"><g><path d="M 2.53125 -17.671875 C 2.53125 -14.035156 3.390625 -10.820312 5.109375 -8.03125 C 6.828125 -5.238281 9.15625 -3.070312 12.09375 -1.53125 C 15.039062 0 18.382812 0.765625 22.125 0.765625 C 25.863281 0.765625 29.207031 0 32.15625 -1.53125 C 35.101562 -3.070312 37.429688 -5.238281 39.140625 -8.03125 C 40.859375 -10.820312 41.71875 -14.035156 41.71875 -17.671875 C 41.71875 -21.359375 40.859375 -24.582031 39.140625 -27.34375 C 37.429688 -30.113281 35.101562 -32.265625 32.15625 -33.796875 C 29.207031 -35.335938 25.863281 -36.109375 22.125 -36.109375 C 18.382812 -36.109375 15.039062 -35.335938 12.09375 -33.796875 C 9.15625 -32.265625 6.828125 -30.113281 5.109375 -27.34375 C 3.390625 -24.582031 2.53125 -21.359375 2.53125 -17.671875 Z M 12.671875 -17.671875 C 12.671875 -19.671875 13.09375 -21.4375 13.9375 -22.96875 C 14.789062 -24.507812 15.929688 -25.6875 17.359375 -26.5 C 18.796875 -27.320312 20.382812 -27.734375 22.125 -27.734375 C 23.875 -27.734375 25.460938 -27.320312 26.890625 -26.5 C 28.328125 -25.6875 29.46875 -24.507812 30.3125 -22.96875 C 31.15625 -21.4375 31.578125 -19.671875 31.578125 -17.671875 C 31.578125 -15.671875 31.15625 -13.914062 30.3125 -12.40625 C 29.46875 -10.894531 28.328125 -9.71875 26.890625 -8.875 C 25.460938 -8.03125 23.875 -7.609375 22.125 -7.609375 C 20.382812 -7.609375 18.796875 -8.03125 17.359375 -8.875 C 15.929688 -9.71875 14.789062 -10.894531 13.9375 -12.40625 C 13.09375 -13.914062 12.671875 -15.671875 12.671875 -17.671875 Z M 34.421875 -53.171875 L 26.515625 -56.859375 L 14.984375 -44.5625 L 20.59375 -41.65625 Z M 34.421875 -53.171875 "/></g></g></g><g fill="#6c32ad" fill-opacity="1"><g transform="translate(392.850232, 223.334844)"><g><path d="M 27.734375 -21.515625 L 27.734375 0 L 38.03125 0 L 38.03125 -22.59375 C 38.03125 -26.84375 37.003906 -30.15625 34.953125 -32.53125 C 32.910156 -34.914062 29.789062 -36.109375 25.59375 -36.109375 C 23.082031 -36.109375 20.941406 -35.582031 19.171875 -34.53125 C 17.398438 -33.488281 15.976562 -31.96875 14.90625 -29.96875 L 14.90625 -35.34375 L 4.921875 -35.34375 L 4.921875 0 L 14.90625 0 L 14.90625 -21.515625 C 14.90625 -23.003906 15.1875 -24.285156 15.75 -25.359375 C 16.3125 -26.429688 17.128906 -27.257812 18.203125 -27.84375 C 19.285156 -28.4375 20.519531 -28.734375 21.90625 -28.734375 C 23.945312 -28.734375 25.425781 -28.117188 26.34375 -26.890625 C 27.269531 -25.660156 27.734375 -23.867188 27.734375 -21.515625 Z M 27.734375 -21.515625 "/></g></g></g><g fill="#6c32ad" fill-opacity="1"><g transform="translate(431.035009, 223.334844)"><g/></g></g><g fill="#6c32ad" fill-opacity="1"><g transform="translate(449.320359, 223.334844)"><g><path d="M 38.578125 -35.34375 L 28.203125 -35.34375 L 17.0625 -7.375 L 21.984375 -7.21875 L 10.609375 -35.34375 L -0.46875 -35.34375 L 14.21875 -3.53125 L 5.296875 16.90625 L 15.515625 16.90625 Z M 38.578125 -35.34375 "/></g></g></g><g fill="#3ec2cf" fill-opacity="1"><g transform="translate(500.955422, 223.334844)"><g><path d="M 0.46875 -43.875 L 14.90625 -43.875 L 14.90625 0 L 25.890625 0 L 25.890625 -43.875 L 40.421875 -43.875 L 40.421875 -53.796875 L 0.46875 -53.796875 Z M 0.46875 -43.875 "/></g></g></g><g fill="#3ec2cf" fill-opacity="1"><g transform="translate(536.988924, 223.334844)"><g><path d="M 21.59375 0.765625 C 25.84375 0.765625 29.488281 -0.0625 32.53125 -1.71875 C 35.582031 -3.382812 38.03125 -5.882812 39.875 -9.21875 L 31.203125 -11.90625 C 30.171875 -10.21875 28.875 -8.953125 27.3125 -8.109375 C 25.75 -7.265625 23.867188 -6.84375 21.671875 -6.84375 C 19.722656 -6.84375 18.054688 -7.273438 16.671875 -8.140625 C 15.285156 -9.015625 14.25 -10.269531 13.5625 -11.90625 C 12.875 -13.550781 12.53125 -15.550781 12.53125 -17.90625 C 12.582031 -20.363281 12.953125 -22.425781 13.640625 -24.09375 C 14.328125 -25.757812 15.320312 -27.015625 16.625 -27.859375 C 17.9375 -28.703125 19.566406 -29.125 21.515625 -29.125 C 23.097656 -29.125 24.476562 -28.765625 25.65625 -28.046875 C 26.84375 -27.328125 27.753906 -26.351562 28.390625 -25.125 C 29.035156 -23.894531 29.359375 -22.410156 29.359375 -20.671875 C 29.359375 -20.316406 29.265625 -19.867188 29.078125 -19.328125 C 28.898438 -18.785156 28.710938 -18.363281 28.515625 -18.0625 L 31.203125 -21.59375 L 8.21875 -21.59375 L 8.21875 -15.453125 L 39.875 -15.453125 C 39.925781 -15.753906 39.960938 -16.160156 39.984375 -16.671875 C 40.015625 -17.179688 40.03125 -17.671875 40.03125 -18.140625 C 40.03125 -21.929688 39.3125 -25.171875 37.875 -27.859375 C 36.445312 -30.546875 34.363281 -32.59375 31.625 -34 C 28.882812 -35.40625 25.566406 -36.109375 21.671875 -36.109375 C 17.773438 -36.109375 14.390625 -35.351562 11.515625 -33.84375 C 8.648438 -32.332031 6.4375 -30.207031 4.875 -27.46875 C 3.3125 -24.726562 2.53125 -21.460938 2.53125 -17.671875 C 2.53125 -13.929688 3.3125 -10.691406 4.875 -7.953125 C 6.4375 -5.210938 8.648438 -3.070312 11.515625 -1.53125 C 14.390625 0 17.75 0.765625 21.59375 0.765625 Z M 21.59375 0.765625 "/></g></g></g><g fill="#3ec2cf" fill-opacity="1"><g transform="translate(574.866382, 223.334844)"><g><path d="M 12.453125 -17.671875 C 12.453125 -19.671875 12.910156 -21.4375 13.828125 -22.96875 C 14.753906 -24.507812 16 -25.726562 17.5625 -26.625 C 19.125 -27.519531 20.851562 -27.96875 22.75 -27.96875 C 24.175781 -27.96875 25.609375 -27.738281 27.046875 -27.28125 C 28.484375 -26.820312 29.800781 -26.164062 31 -25.3125 C 32.207031 -24.46875 33.117188 -23.484375 33.734375 -22.359375 L 33.734375 -32.578125 C 32.503906 -33.660156 30.898438 -34.519531 28.921875 -35.15625 C 26.953125 -35.789062 24.660156 -36.109375 22.046875 -36.109375 C 18.304688 -36.109375 14.9375 -35.335938 11.9375 -33.796875 C 8.945312 -32.265625 6.59375 -30.113281 4.875 -27.34375 C 3.164062 -24.582031 2.3125 -21.359375 2.3125 -17.671875 C 2.3125 -14.035156 3.164062 -10.820312 4.875 -8.03125 C 6.59375 -5.238281 8.945312 -3.070312 11.9375 -1.53125 C 14.9375 0 18.304688 0.765625 22.046875 0.765625 C 24.660156 0.765625 26.953125 0.445312 28.921875 -0.1875 C 30.898438 -0.832031 32.503906 -1.71875 33.734375 -2.84375 L 33.734375 -13.0625 C 33.117188 -11.9375 32.234375 -10.953125 31.078125 -10.109375 C 29.929688 -9.265625 28.640625 -8.597656 27.203125 -8.109375 C 25.765625 -7.617188 24.28125 -7.375 22.75 -7.375 C 20.851562 -7.375 19.125 -7.804688 17.5625 -8.671875 C 16 -9.546875 14.753906 -10.75 13.828125 -12.28125 C 12.910156 -13.820312 12.453125 -15.617188 12.453125 -17.671875 Z M 12.453125 -17.671875 "/></g></g></g><g fill="#3ec2cf" fill-opacity="1"><g transform="translate(607.672944, 223.334844)"><g><path d="M 27.734375 -21.515625 L 27.734375 0 L 38.03125 0 L 38.03125 -22.59375 C 38.03125 -26.84375 37.003906 -30.15625 34.953125 -32.53125 C 32.910156 -34.914062 29.789062 -36.109375 25.59375 -36.109375 C 23.082031 -36.109375 20.941406 -35.582031 19.171875 -34.53125 C 17.398438 -33.488281 15.976562 -31.96875 14.90625 -29.96875 L 14.90625 -35.34375 L 4.921875 -35.34375 L 4.921875 0 L 14.90625 0 L 14.90625 -21.515625 C 14.90625 -23.003906 15.1875 -24.285156 15.75 -25.359375 C 16.3125 -26.429688 17.128906 -27.257812 18.203125 -27.84375 C 19.285156 -28.4375 20.519531 -28.734375 21.90625 -28.734375 C 23.945312 -28.734375 25.425781 -28.117188 26.34375 -26.890625 C 27.269531 -25.660156 27.734375 -23.867188 27.734375 -21.515625 Z M 27.734375 -21.515625 "/></g></g></g><g fill="#3ec2cf" fill-opacity="1"><g transform="translate(645.85773, 223.334844)"><g><path d="M 2.53125 -17.671875 C 2.53125 -14.035156 3.390625 -10.820312 5.109375 -8.03125 C 6.828125 -5.238281 9.15625 -3.070312 12.09375 -1.53125 C 15.039062 0 18.382812 0.765625 22.125 0.765625 C 25.863281 0.765625 29.207031 0 32.15625 -1.53125 C 35.101562 -3.070312 37.429688 -5.238281 39.140625 -8.03125 C 40.859375 -10.820312 41.71875 -14.035156 41.71875 -17.671875 C 41.71875 -21.359375 40.859375 -24.582031 39.140625 -27.34375 C 37.429688 -30.113281 35.101562 -32.265625 32.15625 -33.796875 C 29.207031 -35.335938 25.863281 -36.109375 22.125 -36.109375 C 18.382812 -36.109375 15.039062 -35.335938 12.09375 -33.796875 C 9.15625 -32.265625 6.828125 -30.113281 5.109375 -27.34375 C 3.390625 -24.582031 2.53125 -21.359375 2.53125 -17.671875 Z M 12.671875 -17.671875 C 12.671875 -19.671875 13.09375 -21.4375 13.9375 -22.96875 C 14.789062 -24.507812 15.929688 -25.6875 17.359375 -26.5 C 18.796875 -27.320312 20.382812 -27.734375 22.125 -27.734375 C 23.875 -27.734375 25.460938 -27.320312 26.890625 -26.5 C 28.328125 -25.6875 29.46875 -24.507812 30.3125 -22.96875 C 31.15625 -21.4375 31.578125 -19.671875 31.578125 -17.671875 C 31.578125 -15.671875 31.15625 -13.914062 30.3125 -12.40625 C 29.46875 -10.894531 28.328125 -9.71875 26.890625 -8.875 C 25.460938 -8.03125 23.875 -7.609375 22.125 -7.609375 C 20.382812 -7.609375 18.796875 -8.03125 17.359375 -8.875 C 15.929688 -9.71875 14.789062 -10.894531 13.9375 -12.40625 C 13.09375 -13.914062 12.671875 -15.671875 12.671875 -17.671875 Z M 12.671875 -17.671875 "/></g></g></g><g fill="#3ec2cf" fill-opacity="1"><g transform="translate(685.348667, 223.334844)"><g><path d="M 4.921875 -59.9375 L 4.921875 0 L 14.90625 0 L 14.90625 -59.9375 Z M 4.921875 -59.9375 "/></g></g></g><g fill="#3ec2cf" fill-opacity="1"><g transform="translate(700.407077, 223.334844)"><g><path d="M 2.53125 -17.671875 C 2.53125 -14.035156 3.390625 -10.820312 5.109375 -8.03125 C 6.828125 -5.238281 9.15625 -3.070312 12.09375 -1.53125 C 15.039062 0 18.382812 0.765625 22.125 0.765625 C 25.863281 0.765625 29.207031 0 32.15625 -1.53125 C 35.101562 -3.070312 37.429688 -5.238281 39.140625 -8.03125 C 40.859375 -10.820312 41.71875 -14.035156 41.71875 -17.671875 C 41.71875 -21.359375 40.859375 -24.582031 39.140625 -27.34375 C 37.429688 -30.113281 35.101562 -32.265625 32.15625 -33.796875 C 29.207031 -35.335938 25.863281 -36.109375 22.125 -36.109375 C 18.382812 -36.109375 15.039062 -35.335938 12.09375 -33.796875 C 9.15625 -32.265625 6.828125 -30.113281 5.109375 -27.34375 C 3.390625 -24.582031 2.53125 -21.359375 2.53125 -17.671875 Z M 12.671875 -17.671875 C 12.671875 -19.671875 13.09375 -21.4375 13.9375 -22.96875 C 14.789062 -24.507812 15.929688 -25.6875 17.359375 -26.5 C 18.796875 -27.320312 20.382812 -27.734375 22.125 -27.734375 C 23.875 -27.734375 25.460938 -27.320312 26.890625 -26.5 C 28.328125 -25.6875 29.46875 -24.507812 30.3125 -22.96875 C 31.15625 -21.4375 31.578125 -19.671875 31.578125 -17.671875 C 31.578125 -15.671875 31.15625 -13.914062 30.3125 -12.40625 C 29.46875 -10.894531 28.328125 -9.71875 26.890625 -8.875 C 25.460938 -8.03125 23.875 -7.609375 22.125 -7.609375 C 20.382812 -7.609375 18.796875 -8.03125 17.359375 -8.875 C 15.929688 -9.71875 14.789062 -10.894531 13.9375 -12.40625 C 13.09375 -13.914062 12.671875 -15.671875 12.671875 -17.671875 Z M 12.671875 -17.671875 "/></g></g></g><g fill="#3ec2cf" fill-opacity="1"><g transform="translate(739.898015, 223.334844)"><g><path d="M 3.234375 2.453125 C 3.429688 5.523438 4.257812 8.253906 5.71875 10.640625 C 7.1875 13.023438 9.300781 14.867188 12.0625 16.171875 C 14.832031 17.484375 18.265625 18.140625 22.359375 18.140625 C 25.742188 18.140625 28.867188 17.484375 31.734375 16.171875 C 34.609375 14.867188 36.898438 12.804688 38.609375 9.984375 C 40.328125 7.171875 41.1875 3.585938 41.1875 -0.765625 L 41.1875 -35.34375 L 31.578125 -35.34375 L 31.578125 -0.765625 C 31.578125 1.636719 31.128906 3.632812 30.234375 5.21875 C 29.335938 6.8125 28.160156 7.988281 26.703125 8.75 C 25.242188 9.519531 23.691406 9.90625 22.046875 9.90625 C 20.253906 9.90625 18.691406 9.597656 17.359375 8.984375 C 16.035156 8.367188 14.988281 7.507812 14.21875 6.40625 C 13.445312 5.3125 13.035156 3.992188 12.984375 2.453125 Z M 2.53125 -17.984375 C 2.53125 -14.085938 3.320312 -10.796875 4.90625 -8.109375 C 6.5 -5.421875 8.601562 -3.382812 11.21875 -2 C 13.832031 -0.613281 16.597656 0.078125 19.515625 0.078125 C 22.484375 0.078125 25.109375 -0.625 27.390625 -2.03125 C 29.671875 -3.445312 31.460938 -5.507812 32.765625 -8.21875 C 34.078125 -10.9375 34.734375 -14.191406 34.734375 -17.984375 C 34.734375 -21.828125 34.078125 -25.09375 32.765625 -27.78125 C 31.460938 -30.46875 29.671875 -32.523438 27.390625 -33.953125 C 25.109375 -35.390625 22.484375 -36.109375 19.515625 -36.109375 C 16.597656 -36.109375 13.832031 -35.414062 11.21875 -34.03125 C 8.601562 -32.65625 6.5 -30.617188 4.90625 -27.921875 C 3.320312 -25.234375 2.53125 -21.921875 2.53125 -17.984375 Z M 12.828125 -17.984375 C 12.828125 -20.128906 13.265625 -21.929688 14.140625 -23.390625 C 15.015625 -24.859375 16.191406 -25.972656 17.671875 -26.734375 C 19.160156 -27.503906 20.75 -27.890625 22.4375 -27.890625 C 23.5625 -27.890625 24.660156 -27.671875 25.734375 -27.234375 C 26.816406 -26.804688 27.804688 -26.179688 28.703125 -25.359375 C 29.597656 -24.535156 30.300781 -23.507812 30.8125 -22.28125 C 31.320312 -21.050781 31.578125 -19.617188 31.578125 -17.984375 C 31.578125 -15.828125 31.128906 -14.019531 30.234375 -12.5625 C 29.335938 -11.101562 28.1875 -10 26.78125 -9.25 C 25.375 -8.507812 23.925781 -8.140625 22.4375 -8.140625 C 20.75 -8.140625 19.160156 -8.523438 17.671875 -9.296875 C 16.191406 -10.066406 15.015625 -11.179688 14.140625 -12.640625 C 13.265625 -14.097656 12.828125 -15.878906 12.828125 -17.984375 Z M 12.828125 -17.984375 "/></g></g></g><g fill="#3ec2cf" fill-opacity="1"><g transform="translate(781.079255, 223.334844)"><g><path d="M 5.53125 -35.34375 L 5.53125 0 L 15.21875 0 L 15.21875 -35.34375 Z M 23.359375 -53.171875 L 15.453125 -56.859375 L 3.921875 -44.5625 L 9.53125 -41.65625 Z M 23.359375 -53.171875 "/></g></g></g><g fill="#3ec2cf" fill-opacity="1"><g transform="translate(797.136498, 223.334844)"><g><path d="M 11.984375 -10.984375 C 11.984375 -12.015625 12.210938 -12.875 12.671875 -13.5625 C 13.140625 -14.25 13.859375 -14.785156 14.828125 -15.171875 C 15.804688 -15.554688 17.0625 -15.75 18.59375 -15.75 C 20.488281 -15.75 22.296875 -15.492188 24.015625 -14.984375 C 25.734375 -14.472656 27.28125 -13.703125 28.65625 -12.671875 L 28.65625 -17.296875 C 28.144531 -17.910156 27.300781 -18.546875 26.125 -19.203125 C 24.945312 -19.867188 23.5 -20.429688 21.78125 -20.890625 C 20.0625 -21.359375 18.078125 -21.59375 15.828125 -21.59375 C 11.421875 -21.59375 8.015625 -20.59375 5.609375 -18.59375 C 3.203125 -16.59375 2 -13.878906 2 -10.453125 C 2 -8.046875 2.570312 -6.007812 3.71875 -4.34375 C 4.875 -2.675781 6.398438 -1.40625 8.296875 -0.53125 C 10.191406 0.332031 12.242188 0.765625 14.453125 0.765625 C 16.597656 0.765625 18.65625 0.382812 20.625 -0.375 C 22.601562 -1.144531 24.21875 -2.296875 25.46875 -3.828125 C 26.726562 -5.367188 27.359375 -7.269531 27.359375 -9.53125 L 26.125 -14.140625 C 26.125 -12.453125 25.738281 -11.003906 24.96875 -9.796875 C 24.207031 -8.585938 23.210938 -7.664062 21.984375 -7.03125 C 20.753906 -6.394531 19.367188 -6.078125 17.828125 -6.078125 C 16.753906 -6.078125 15.769531 -6.265625 14.875 -6.640625 C 13.976562 -7.023438 13.269531 -7.585938 12.75 -8.328125 C 12.238281 -9.078125 11.984375 -9.960938 11.984375 -10.984375 Z M 8.140625 -25.359375 C 8.648438 -25.710938 9.441406 -26.144531 10.515625 -26.65625 C 11.597656 -27.175781 12.878906 -27.613281 14.359375 -27.96875 C 15.847656 -28.332031 17.414062 -28.515625 19.0625 -28.515625 C 20.132812 -28.515625 21.101562 -28.410156 21.96875 -28.203125 C 22.84375 -27.992188 23.597656 -27.660156 24.234375 -27.203125 C 24.878906 -26.742188 25.351562 -26.164062 25.65625 -25.46875 C 25.96875 -24.78125 26.125 -23.945312 26.125 -22.96875 L 26.125 0 L 35.734375 0 L 35.734375 -25.046875 C 35.734375 -27.453125 35.066406 -29.488281 33.734375 -31.15625 C 32.398438 -32.820312 30.554688 -34.085938 28.203125 -34.953125 C 25.847656 -35.828125 23.160156 -36.265625 20.140625 -36.265625 C 16.859375 -36.265625 13.882812 -35.816406 11.21875 -34.921875 C 8.550781 -34.023438 6.296875 -33.09375 4.453125 -32.125 Z M 8.140625 -25.359375 "/></g></g></g><g fill="#3ec2cf" fill-opacity="1"><g transform="translate(832.40168, 223.334844)"><g><path d="M 6.6875 -12.21875 L 1.84375 -6 C 3.175781 -4.71875 4.675781 -3.523438 6.34375 -2.421875 C 8.007812 -1.316406 9.878906 -0.429688 11.953125 0.234375 C 14.023438 0.898438 16.316406 1.234375 18.828125 1.234375 C 22.867188 1.234375 26.039062 0.246094 28.34375 -1.71875 C 30.65625 -3.695312 31.8125 -6.453125 31.8125 -9.984375 C 31.8125 -12.140625 31.320312 -13.882812 30.34375 -15.21875 C 29.375 -16.550781 28.082031 -17.664062 26.46875 -18.5625 C 24.851562 -19.457031 23.097656 -20.265625 21.203125 -20.984375 C 19.671875 -21.648438 18.300781 -22.210938 17.09375 -22.671875 C 15.894531 -23.128906 14.972656 -23.648438 14.328125 -24.234375 C 13.691406 -24.828125 13.375 -25.507812 13.375 -26.28125 C 13.375 -27.15625 13.691406 -27.804688 14.328125 -28.234375 C 14.972656 -28.671875 15.859375 -28.890625 16.984375 -28.890625 C 18.671875 -28.890625 20.398438 -28.453125 22.171875 -27.578125 C 23.941406 -26.710938 25.460938 -25.585938 26.734375 -24.203125 L 31.125 -30.359375 C 30 -31.484375 28.691406 -32.46875 27.203125 -33.3125 C 25.710938 -34.15625 24.097656 -34.832031 22.359375 -35.34375 C 20.617188 -35.851562 18.75 -36.109375 16.75 -36.109375 C 14.394531 -36.109375 12.253906 -35.738281 10.328125 -35 C 8.410156 -34.257812 6.890625 -33.160156 5.765625 -31.703125 C 4.640625 -30.242188 4.078125 -28.460938 4.078125 -26.359375 C 4.078125 -24.148438 4.570312 -22.34375 5.5625 -20.9375 C 6.5625 -19.53125 7.832031 -18.40625 9.375 -17.5625 C 10.914062 -16.71875 12.503906 -15.988281 14.140625 -15.375 C 15.878906 -14.8125 17.3125 -14.269531 18.4375 -13.75 C 19.570312 -13.238281 20.429688 -12.660156 21.015625 -12.015625 C 21.609375 -11.378906 21.90625 -10.601562 21.90625 -9.6875 C 21.90625 -8.65625 21.546875 -7.84375 20.828125 -7.25 C 20.109375 -6.664062 19.082031 -6.375 17.75 -6.375 C 16.726562 -6.375 15.640625 -6.578125 14.484375 -6.984375 C 13.328125 -7.398438 12.109375 -8.03125 10.828125 -8.875 C 9.546875 -9.71875 8.164062 -10.832031 6.6875 -12.21875 Z M 6.6875 -12.21875 "/></g></g></g><g fill="#3ec2cf" fill-opacity="1"><g transform="translate(861.366647, 223.334844)"><g/></g></g><g fill="#3ec2cf" fill-opacity="1"><g transform="translate(879.651997, 223.334844)"><g><path d="M 13.296875 -12.21875 L 41.71875 -12.21875 L 40.421875 -20.90625 L 14.59375 -20.90625 Z M 27.359375 -36.34375 L 35.421875 -17.671875 L 35.265625 -14.90625 L 42.1875 0 L 54.640625 0 L 27.359375 -56.9375 L 0.078125 0 L 12.453125 0 L 19.515625 -15.375 L 19.28125 -17.828125 Z M 27.359375 -36.34375 "/></g></g></g><g fill="#3ec2cf" fill-opacity="1"><g transform="translate(929.515205, 223.334844)"><g><path d="M 14.671875 16.90625 L 14.671875 -35.34375 L 4.6875 -35.34375 L 4.6875 16.90625 Z M 43.71875 -17.671875 C 43.71875 -21.722656 42.921875 -25.144531 41.328125 -27.9375 C 39.742188 -30.726562 37.660156 -32.835938 35.078125 -34.265625 C 32.492188 -35.703125 29.710938 -36.421875 26.734375 -36.421875 C 23.710938 -36.421875 21.085938 -35.648438 18.859375 -34.109375 C 16.628906 -32.578125 14.910156 -30.414062 13.703125 -27.625 C 12.503906 -24.832031 11.90625 -21.515625 11.90625 -17.671875 C 11.90625 -13.878906 12.503906 -10.570312 13.703125 -7.75 C 14.910156 -4.9375 16.628906 -2.757812 18.859375 -1.21875 C 21.085938 0.308594 23.710938 1.078125 26.734375 1.078125 C 29.710938 1.078125 32.492188 0.355469 35.078125 -1.078125 C 37.660156 -2.515625 39.742188 -4.640625 41.328125 -7.453125 C 42.921875 -10.273438 43.71875 -13.679688 43.71875 -17.671875 Z M 33.421875 -17.671875 C 33.421875 -15.578125 32.984375 -13.785156 32.109375 -12.296875 C 31.242188 -10.804688 30.082031 -9.675781 28.625 -8.90625 C 27.164062 -8.144531 25.566406 -7.765625 23.828125 -7.765625 C 22.335938 -7.765625 20.882812 -8.132812 19.46875 -8.875 C 18.0625 -9.613281 16.910156 -10.726562 16.015625 -12.21875 C 15.117188 -13.707031 14.671875 -15.523438 14.671875 -17.671875 C 14.671875 -19.828125 15.117188 -21.644531 16.015625 -23.125 C 16.910156 -24.613281 18.0625 -25.726562 19.46875 -26.46875 C 20.882812 -27.21875 22.335938 -27.59375 23.828125 -27.59375 C 25.566406 -27.59375 27.164062 -27.207031 28.625 -26.4375 C 30.082031 -25.664062 31.242188 -24.535156 32.109375 -23.046875 C 32.984375 -21.566406 33.421875 -19.773438 33.421875 -17.671875 Z M 33.421875 -17.671875 "/></g></g></g><g fill="#3ec2cf" fill-opacity="1"><g transform="translate(971.003791, 223.334844)"><g><path d="M 4.921875 -59.9375 L 4.921875 0 L 14.90625 0 L 14.90625 -59.9375 Z M 4.921875 -59.9375 "/></g></g></g><g fill="#3ec2cf" fill-opacity="1"><g transform="translate(986.062201, 223.334844)"><g><path d="M 4.453125 -49.03125 C 4.453125 -47.4375 5.039062 -46.101562 6.21875 -45.03125 C 7.394531 -43.957031 8.804688 -43.421875 10.453125 -43.421875 C 12.085938 -43.421875 13.484375 -43.957031 14.640625 -45.03125 C 15.796875 -46.101562 16.375 -47.4375 16.375 -49.03125 C 16.375 -50.664062 15.796875 -52.007812 14.640625 -53.0625 C 13.484375 -54.113281 12.085938 -54.640625 10.453125 -54.640625 C 8.804688 -54.640625 7.394531 -54.113281 6.21875 -53.0625 C 5.039062 -52.007812 4.453125 -50.664062 4.453125 -49.03125 Z M 5.53125 -35.34375 L 5.53125 0 L 15.21875 0 L 15.21875 -35.34375 Z M 5.53125 -35.34375 "/></g></g></g><g fill="#3ec2cf" fill-opacity="1"><g transform="translate(1002.119444, 223.334844)"><g><path d="M 12.453125 -17.671875 C 12.453125 -19.671875 12.910156 -21.4375 13.828125 -22.96875 C 14.753906 -24.507812 16 -25.726562 17.5625 -26.625 C 19.125 -27.519531 20.851562 -27.96875 22.75 -27.96875 C 24.175781 -27.96875 25.609375 -27.738281 27.046875 -27.28125 C 28.484375 -26.820312 29.800781 -26.164062 31 -25.3125 C 32.207031 -24.46875 33.117188 -23.484375 33.734375 -22.359375 L 33.734375 -32.578125 C 32.503906 -33.660156 30.898438 -34.519531 28.921875 -35.15625 C 26.953125 -35.789062 24.660156 -36.109375 22.046875 -36.109375 C 18.304688 -36.109375 14.9375 -35.335938 11.9375 -33.796875 C 8.945312 -32.265625 6.59375 -30.113281 4.875 -27.34375 C 3.164062 -24.582031 2.3125 -21.359375 2.3125 -17.671875 C 2.3125 -14.035156 3.164062 -10.820312 4.875 -8.03125 C 6.59375 -5.238281 8.945312 -3.070312 11.9375 -1.53125 C 14.9375 0 18.304688 0.765625 22.046875 0.765625 C 24.660156 0.765625 26.953125 0.445312 28.921875 -0.1875 C 30.898438 -0.832031 32.503906 -1.71875 33.734375 -2.84375 L 33.734375 -13.0625 C 33.117188 -11.9375 32.234375 -10.953125 31.078125 -10.109375 C 29.929688 -9.265625 28.640625 -8.597656 27.203125 -8.109375 C 25.765625 -7.617188 24.28125 -7.375 22.75 -7.375 C 20.851562 -7.375 19.125 -7.804688 17.5625 -8.671875 C 16 -9.546875 14.753906 -10.75 13.828125 -12.28125 C 12.910156 -13.820312 12.453125 -15.617188 12.453125 -17.671875 Z M 12.453125 -17.671875 "/></g></g></g><g fill="#3ec2cf" fill-opacity="1"><g transform="translate(1034.926006, 223.334844)"><g><path d="M 11.984375 -10.984375 C 11.984375 -12.015625 12.210938 -12.875 12.671875 -13.5625 C 13.140625 -14.25 13.859375 -14.785156 14.828125 -15.171875 C 15.804688 -15.554688 17.0625 -15.75 18.59375 -15.75 C 20.488281 -15.75 22.296875 -15.492188 24.015625 -14.984375 C 25.734375 -14.472656 27.28125 -13.703125 28.65625 -12.671875 L 28.65625 -17.296875 C 28.144531 -17.910156 27.300781 -18.546875 26.125 -19.203125 C 24.945312 -19.867188 23.5 -20.429688 21.78125 -20.890625 C 20.0625 -21.359375 18.078125 -21.59375 15.828125 -21.59375 C 11.421875 -21.59375 8.015625 -20.59375 5.609375 -18.59375 C 3.203125 -16.59375 2 -13.878906 2 -10.453125 C 2 -8.046875 2.570312 -6.007812 3.71875 -4.34375 C 4.875 -2.675781 6.398438 -1.40625 8.296875 -0.53125 C 10.191406 0.332031 12.242188 0.765625 14.453125 0.765625 C 16.597656 0.765625 18.65625 0.382812 20.625 -0.375 C 22.601562 -1.144531 24.21875 -2.296875 25.46875 -3.828125 C 26.726562 -5.367188 27.359375 -7.269531 27.359375 -9.53125 L 26.125 -14.140625 C 26.125 -12.453125 25.738281 -11.003906 24.96875 -9.796875 C 24.207031 -8.585938 23.210938 -7.664062 21.984375 -7.03125 C 20.753906 -6.394531 19.367188 -6.078125 17.828125 -6.078125 C 16.753906 -6.078125 15.769531 -6.265625 14.875 -6.640625 C 13.976562 -7.023438 13.269531 -7.585938 12.75 -8.328125 C 12.238281 -9.078125 11.984375 -9.960938 11.984375 -10.984375 Z M 8.140625 -25.359375 C 8.648438 -25.710938 9.441406 -26.144531 10.515625 -26.65625 C 11.597656 -27.175781 12.878906 -27.613281 14.359375 -27.96875 C 15.847656 -28.332031 17.414062 -28.515625 19.0625 -28.515625 C 20.132812 -28.515625 21.101562 -28.410156 21.96875 -28.203125 C 22.84375 -27.992188 23.597656 -27.660156 24.234375 -27.203125 C 24.878906 -26.742188 25.351562 -26.164062 25.65625 -25.46875 C 25.96875 -24.78125 26.125 -23.945312 26.125 -22.96875 L 26.125 0 L 35.734375 0 L 35.734375 -25.046875 C 35.734375 -27.453125 35.066406 -29.488281 33.734375 -31.15625 C 32.398438 -32.820312 30.554688 -34.085938 28.203125 -34.953125 C 25.847656 -35.828125 23.160156 -36.265625 20.140625 -36.265625 C 16.859375 -36.265625 13.882812 -35.816406 11.21875 -34.921875 C 8.550781 -34.023438 6.296875 -33.09375 4.453125 -32.125 Z M 8.140625 -25.359375 "/></g></g></g><g fill="#3ec2cf" fill-opacity="1"><g transform="translate(1070.191189, 223.334844)"><g><path d="M 31.578125 -59.9375 L 31.578125 0 L 41.578125 0 L 41.578125 -59.9375 Z M 2.53125 -17.671875 C 2.53125 -13.773438 3.320312 -10.441406 4.90625 -7.671875 C 6.5 -4.910156 8.601562 -2.8125 11.21875 -1.375 C 13.832031 0.0507812 16.597656 0.765625 19.515625 0.765625 C 22.484375 0.765625 25.109375 0.0234375 27.390625 -1.453125 C 29.671875 -2.941406 31.460938 -5.066406 32.765625 -7.828125 C 34.078125 -10.597656 34.734375 -13.878906 34.734375 -17.671875 C 34.734375 -21.515625 34.078125 -24.804688 32.765625 -27.546875 C 31.460938 -30.285156 29.671875 -32.394531 27.390625 -33.875 C 25.109375 -35.363281 22.484375 -36.109375 19.515625 -36.109375 C 16.597656 -36.109375 13.832031 -35.390625 11.21875 -33.953125 C 8.601562 -32.523438 6.5 -30.441406 4.90625 -27.703125 C 3.320312 -24.960938 2.53125 -21.617188 2.53125 -17.671875 Z M 12.828125 -17.671875 C 12.828125 -19.773438 13.265625 -21.59375 14.140625 -23.125 C 15.015625 -24.664062 16.191406 -25.84375 17.671875 -26.65625 C 19.160156 -27.476562 20.75 -27.890625 22.4375 -27.890625 C 23.925781 -27.890625 25.375 -27.492188 26.78125 -26.703125 C 28.1875 -25.910156 29.335938 -24.742188 30.234375 -23.203125 C 31.128906 -21.671875 31.578125 -19.828125 31.578125 -17.671875 C 31.578125 -15.523438 31.128906 -13.679688 30.234375 -12.140625 C 29.335938 -10.609375 28.1875 -9.441406 26.78125 -8.640625 C 25.375 -7.847656 23.925781 -7.453125 22.4375 -7.453125 C 20.75 -7.453125 19.160156 -7.859375 17.671875 -8.671875 C 16.191406 -9.492188 15.015625 -10.675781 14.140625 -12.21875 C 13.265625 -13.757812 12.828125 -15.578125 12.828125 -17.671875 Z M 12.828125 -17.671875 "/></g></g></g><g fill="#3ec2cf" fill-opacity="1"><g transform="translate(1111.679737, 223.334844)"><g><path d="M 11.984375 -10.984375 C 11.984375 -12.015625 12.210938 -12.875 12.671875 -13.5625 C 13.140625 -14.25 13.859375 -14.785156 14.828125 -15.171875 C 15.804688 -15.554688 17.0625 -15.75 18.59375 -15.75 C 20.488281 -15.75 22.296875 -15.492188 24.015625 -14.984375 C 25.734375 -14.472656 27.28125 -13.703125 28.65625 -12.671875 L 28.65625 -17.296875 C 28.144531 -17.910156 27.300781 -18.546875 26.125 -19.203125 C 24.945312 -19.867188 23.5 -20.429688 21.78125 -20.890625 C 20.0625 -21.359375 18.078125 -21.59375 15.828125 -21.59375 C 11.421875 -21.59375 8.015625 -20.59375 5.609375 -18.59375 C 3.203125 -16.59375 2 -13.878906 2 -10.453125 C 2 -8.046875 2.570312 -6.007812 3.71875 -4.34375 C 4.875 -2.675781 6.398438 -1.40625 8.296875 -0.53125 C 10.191406 0.332031 12.242188 0.765625 14.453125 0.765625 C 16.597656 0.765625 18.65625 0.382812 20.625 -0.375 C 22.601562 -1.144531 24.21875 -2.296875 25.46875 -3.828125 C 26.726562 -5.367188 27.359375 -7.269531 27.359375 -9.53125 L 26.125 -14.140625 C 26.125 -12.453125 25.738281 -11.003906 24.96875 -9.796875 C 24.207031 -8.585938 23.210938 -7.664062 21.984375 -7.03125 C 20.753906 -6.394531 19.367188 -6.078125 17.828125 -6.078125 C 16.753906 -6.078125 15.769531 -6.265625 14.875 -6.640625 C 13.976562 -7.023438 13.269531 -7.585938 12.75 -8.328125 C 12.238281 -9.078125 11.984375 -9.960938 11.984375 -10.984375 Z M 8.140625 -25.359375 C 8.648438 -25.710938 9.441406 -26.144531 10.515625 -26.65625 C 11.597656 -27.175781 12.878906 -27.613281 14.359375 -27.96875 C 15.847656 -28.332031 17.414062 -28.515625 19.0625 -28.515625 C 20.132812 -28.515625 21.101562 -28.410156 21.96875 -28.203125 C 22.84375 -27.992188 23.597656 -27.660156 24.234375 -27.203125 C 24.878906 -26.742188 25.351562 -26.164062 25.65625 -25.46875 C 25.96875 -24.78125 26.125 -23.945312 26.125 -22.96875 L 26.125 0 L 35.734375 0 L 35.734375 -25.046875 C 35.734375 -27.453125 35.066406 -29.488281 33.734375 -31.15625 C 32.398438 -32.820312 30.554688 -34.085938 28.203125 -34.953125 C 25.847656 -35.828125 23.160156 -36.265625 20.140625 -36.265625 C 16.859375 -36.265625 13.882812 -35.816406 11.21875 -34.921875 C 8.550781 -34.023438 6.296875 -33.09375 4.453125 -32.125 Z M 8.140625 -25.359375 "/></g></g></g><g fill="#3ec2cf" fill-opacity="1"><g transform="translate(1146.94492, 223.334844)"><g><path d="M 6.6875 -12.21875 L 1.84375 -6 C 3.175781 -4.71875 4.675781 -3.523438 6.34375 -2.421875 C 8.007812 -1.316406 9.878906 -0.429688 11.953125 0.234375 C 14.023438 0.898438 16.316406 1.234375 18.828125 1.234375 C 22.867188 1.234375 26.039062 0.246094 28.34375 -1.71875 C 30.65625 -3.695312 31.8125 -6.453125 31.8125 -9.984375 C 31.8125 -12.140625 31.320312 -13.882812 30.34375 -15.21875 C 29.375 -16.550781 28.082031 -17.664062 26.46875 -18.5625 C 24.851562 -19.457031 23.097656 -20.265625 21.203125 -20.984375 C 19.671875 -21.648438 18.300781 -22.210938 17.09375 -22.671875 C 15.894531 -23.128906 14.972656 -23.648438 14.328125 -24.234375 C 13.691406 -24.828125 13.375 -25.507812 13.375 -26.28125 C 13.375 -27.15625 13.691406 -27.804688 14.328125 -28.234375 C 14.972656 -28.671875 15.859375 -28.890625 16.984375 -28.890625 C 18.671875 -28.890625 20.398438 -28.453125 22.171875 -27.578125 C 23.941406 -26.710938 25.460938 -25.585938 26.734375 -24.203125 L 31.125 -30.359375 C 30 -31.484375 28.691406 -32.46875 27.203125 -33.3125 C 25.710938 -34.15625 24.097656 -34.832031 22.359375 -35.34375 C 20.617188 -35.851562 18.75 -36.109375 16.75 -36.109375 C 14.394531 -36.109375 12.253906 -35.738281 10.328125 -35 C 8.410156 -34.257812 6.890625 -33.160156 5.765625 -31.703125 C 4.640625 -30.242188 4.078125 -28.460938 4.078125 -26.359375 C 4.078125 -24.148438 4.570312 -22.34375 5.5625 -20.9375 C 6.5625 -19.53125 7.832031 -18.40625 9.375 -17.5625 C 10.914062 -16.71875 12.503906 -15.988281 14.140625 -15.375 C 15.878906 -14.8125 17.3125 -14.269531 18.4375 -13.75 C 19.570312 -13.238281 20.429688 -12.660156 21.015625 -12.015625 C 21.609375 -11.378906 21.90625 -10.601562 21.90625 -9.6875 C 21.90625 -8.65625 21.546875 -7.84375 20.828125 -7.25 C 20.109375 -6.664062 19.082031 -6.375 17.75 -6.375 C 16.726562 -6.375 15.640625 -6.578125 14.484375 -6.984375 C 13.328125 -7.398438 12.109375 -8.03125 10.828125 -8.875 C 9.546875 -9.71875 8.164062 -10.832031 6.6875 -12.21875 Z M 6.6875 -12.21875 "/></g></g></g><g clip-path="url(#a845ea6bc2)"><g transform="matrix(1, 0, 0, 1, 0.000000000000000111, 1)"><g clip-path="url(#2b514c29f7)"><g clip-path="url(#05956bbad8)"><g mask="url(#9db548281f)"><g transform="matrix(1, 0, 0, 1, 0.000000000000000111, 0)"><g clip-path="url(#0aad33f28a)"><g clip-path="url(#a7d64d93e9)"><path fill="url(#32a0ff3e29)" d="M 0.5 0.574219 L 0.5 267 L 1236.5 267 L 1236.5 0.574219 Z M 0.5 0.574219 " fill-rule="nonzero"/></g></g></g></g></g></g></g></g></g></g></g></svg>