<svg xmlns="http://www.w3.org/2000/svg" xmlns:xlink="http://www.w3.org/1999/xlink" width="1650" zoomAndPan="magnify" viewBox="0 0 1237.5 412.499988" height="550" preserveAspectRatio="xMidYMid meet" version="1.0"><defs><filter x="0%" y="0%" width="100%" height="100%" id="6974074a61"><feColorMatrix values="0 0 0 0 1 0 0 0 0 1 0 0 0 0 1 0 0 0 1 0" color-interpolation-filters="sRGB"/></filter><g/><clipPath id="3b6f40a53d"><rect x="0" width="957" y="0" height="323"/></clipPath><clipPath id="f7fdf12ee8"><path d="M 109.074219 46.113281 L 140.324219 46.113281 L 140.324219 361.550781 L 109.074219 361.550781 Z M 109.074219 46.113281 " clip-rule="nonzero"/></clipPath><clipPath id="a9dd54c700"><path d="M 124.699219 46.113281 C 128.84375 46.113281 132.816406 47.757812 135.746094 50.6875 C 138.675781 53.617188 140.324219 57.59375 140.324219 61.738281 L 140.324219 345.804688 C 140.324219 349.949219 138.675781 353.921875 135.746094 356.855469 C 132.816406 359.785156 128.84375 361.429688 124.699219 361.429688 C 120.554688 361.429688 116.578125 359.785156 113.648438 356.855469 C 110.71875 353.921875 109.074219 349.949219 109.074219 345.804688 L 109.074219 61.738281 C 109.074219 57.59375 110.71875 53.617188 113.648438 50.6875 C 116.578125 47.757812 120.554688 46.113281 124.699219 46.113281 Z M 124.699219 46.113281 " clip-rule="nonzero"/></clipPath><clipPath id="b45e0a9534"><path d="M 0.0742188 0.113281 L 31.324219 0.113281 L 31.324219 315.480469 L 0.0742188 315.480469 Z M 0.0742188 0.113281 " clip-rule="nonzero"/></clipPath><clipPath id="63c38eb9dd"><path d="M 15.699219 0.113281 C 19.84375 0.113281 23.816406 1.757812 26.746094 4.6875 C 29.675781 7.617188 31.324219 11.59375 31.324219 15.738281 L 31.324219 299.804688 C 31.324219 303.949219 29.675781 307.921875 26.746094 310.855469 C 23.816406 313.785156 19.84375 315.429688 15.699219 315.429688 C 11.554688 315.429688 7.578125 313.785156 4.648438 310.855469 C 1.71875 307.921875 0.0742188 303.949219 0.0742188 299.804688 L 0.0742188 15.738281 C 0.0742188 11.59375 1.71875 7.617188 4.648438 4.6875 C 7.578125 1.757812 11.554688 0.113281 15.699219 0.113281 Z M 15.699219 0.113281 " clip-rule="nonzero"/></clipPath><clipPath id="10611591a6"><rect x="0" width="32" y="0" height="316"/></clipPath><clipPath id="e88781d909"><path d="M 20 145 L 1236.5 145 L 1236.5 412 L 20 412 Z M 20 145 " clip-rule="nonzero"/></clipPath><clipPath id="0986b7db52"><path d="M 1.300781 1.320312 L 1216.5 1.320312 L 1216.5 267 L 1.300781 267 Z M 1.300781 1.320312 " clip-rule="nonzero"/></clipPath><clipPath id="ab84fb7fce"><path d="M 0.300781 0.320312 L 1215.5 0.320312 L 1215.5 266 L 0.300781 266 Z M 0.300781 0.320312 " clip-rule="nonzero"/></clipPath><clipPath id="f80284e872"><path d="M 0.300781 0.320312 L 1215.5 0.320312 L 1215.5 266 L 0.300781 266 Z M 0.300781 0.320312 " clip-rule="nonzero"/></clipPath><clipPath id="57e28a0107"><rect x="0" width="1216" y="0" height="266"/></clipPath><clipPath id="f4cf7bb1e6"><rect x="0" width="1216" y="0" height="266"/></clipPath><mask id="3f1bf3066c"><g filter="url(#6974074a61)"><g transform="matrix(1, 0, 0, 1, -0.000000000000003553, -0.000000000000028422)"><g clip-path="url(#f4cf7bb1e6)"><g clip-path="url(#f80284e872)"><g transform="matrix(1, 0, 0, 1, -0.000000000000003553, -0.000000000000028422)"><g clip-path="url(#57e28a0107)"><g fill="#000000" fill-opacity="1"><g transform="translate(136.825228, 197.641183)"><g><path d="M 5.203125 -47.859375 L 5.203125 0 L 15.109375 0 L 15.109375 -47.859375 Z M 5.203125 -47.859375 "/></g></g></g><g fill="#000000" fill-opacity="1"><g transform="translate(475.782829, 197.641183)"><g/></g></g><g fill="#000000" fill-opacity="1"><g transform="translate(1092.630722, 197.641183)"><g/></g></g></g></g></g></g></g></g></mask><clipPath id="b588f6060f"><path d="M 0.3125 0.320312 L 1215.5 0.320312 L 1215.5 266 L 0.3125 266 Z M 0.3125 0.320312 " clip-rule="nonzero"/></clipPath><linearGradient x1="-247.40601" gradientTransform="matrix(0.552584, 0, 0, 0.552026, 137.024951, 136.89683)" y1="68" x2="1951.697921" gradientUnits="userSpaceOnUse" y2="68" id="689fd246f0"><stop stop-opacity="1" stop-color="rgb(42.349243%, 19.60907%, 67.83905%)" offset="0"/><stop stop-opacity="1" stop-color="rgb(42.349243%, 19.60907%, 67.83905%)" offset="0.0625"/><stop stop-opacity="1" stop-color="rgb(42.349243%, 19.60907%, 67.83905%)" offset="0.09375"/><stop stop-opacity="1" stop-color="rgb(42.349243%, 19.60907%, 67.83905%)" offset="0.109375"/><stop stop-opacity="1" stop-color="rgb(42.51709%, 19.674683%, 67.87262%)" offset="0.117188"/><stop stop-opacity="1" stop-color="rgb(42.967224%, 19.85321%, 67.961121%)" offset="0.121094"/><stop stop-opacity="1" stop-color="rgb(43.249512%, 19.9646%, 68.017578%)" offset="0.125"/><stop stop-opacity="1" stop-color="rgb(43.530273%, 20.075989%, 68.07251%)" offset="0.128906"/><stop stop-opacity="1" stop-color="rgb(43.812561%, 20.187378%, 68.128967%)" offset="0.132812"/><stop stop-opacity="1" stop-color="rgb(44.094849%, 20.297241%, 68.183899%)" offset="0.136719"/><stop stop-opacity="1" stop-color="rgb(44.377136%, 20.40863%, 68.238831%)" offset="0.140625"/><stop stop-opacity="1" stop-color="rgb(44.657898%, 20.52002%, 68.293762%)" offset="0.144531"/><stop stop-opacity="1" stop-color="rgb(44.940186%, 20.631409%, 68.35022%)" offset="0.148438"/><stop stop-opacity="1" stop-color="rgb(45.220947%, 20.741272%, 68.405151%)" offset="0.152344"/><stop stop-opacity="1" stop-color="rgb(45.503235%, 20.852661%, 68.461609%)" offset="0.15625"/><stop stop-opacity="1" stop-color="rgb(45.783997%, 20.96405%, 68.516541%)" offset="0.160156"/><stop stop-opacity="1" stop-color="rgb(46.066284%, 21.075439%, 68.572998%)" offset="0.164063"/><stop stop-opacity="1" stop-color="rgb(46.347046%, 21.185303%, 68.62793%)" offset="0.167969"/><stop stop-opacity="1" stop-color="rgb(46.629333%, 21.296692%, 68.684387%)" offset="0.171875"/><stop stop-opacity="1" stop-color="rgb(46.910095%, 21.408081%, 68.739319%)" offset="0.175781"/><stop stop-opacity="1" stop-color="rgb(47.192383%, 21.51947%, 68.795776%)" offset="0.179688"/><stop stop-opacity="1" stop-color="rgb(47.473145%, 21.630859%, 68.850708%)" offset="0.183594"/><stop stop-opacity="1" stop-color="rgb(47.755432%, 21.742249%, 68.907166%)" offset="0.1875"/><stop stop-opacity="1" stop-color="rgb(48.036194%, 21.852112%, 68.962097%)" offset="0.191406"/><stop stop-opacity="1" stop-color="rgb(48.318481%, 21.963501%, 69.017029%)" offset="0.195313"/><stop stop-opacity="1" stop-color="rgb(48.599243%, 22.07489%, 69.07196%)" offset="0.199219"/><stop stop-opacity="1" stop-color="rgb(48.881531%, 22.186279%, 69.128418%)" offset="0.203125"/><stop stop-opacity="1" stop-color="rgb(49.162292%, 22.296143%, 69.18335%)" offset="0.207031"/><stop stop-opacity="1" stop-color="rgb(49.44458%, 22.407532%, 69.239807%)" offset="0.210938"/><stop stop-opacity="1" stop-color="rgb(49.725342%, 22.518921%, 69.294739%)" offset="0.214844"/><stop stop-opacity="1" stop-color="rgb(50.007629%, 22.63031%, 69.351196%)" offset="0.21875"/><stop stop-opacity="1" stop-color="rgb(50.288391%, 22.741699%, 69.406128%)" offset="0.222656"/><stop stop-opacity="1" stop-color="rgb(50.570679%, 22.853088%, 69.462585%)" offset="0.226563"/><stop stop-opacity="1" stop-color="rgb(50.852966%, 22.962952%, 69.517517%)" offset="0.230469"/><stop stop-opacity="1" stop-color="rgb(51.135254%, 23.074341%, 69.573975%)" offset="0.234375"/><stop stop-opacity="1" stop-color="rgb(51.416016%, 23.18573%, 69.628906%)" offset="0.238281"/><stop stop-opacity="1" stop-color="rgb(51.698303%, 23.297119%, 69.685364%)" offset="0.242188"/><stop stop-opacity="1" stop-color="rgb(51.979065%, 23.406982%, 69.740295%)" offset="0.246094"/><stop stop-opacity="1" stop-color="rgb(52.261353%, 23.518372%, 69.795227%)" offset="0.25"/><stop stop-opacity="1" stop-color="rgb(52.542114%, 23.629761%, 69.850159%)" offset="0.253906"/><stop stop-opacity="1" stop-color="rgb(52.824402%, 23.74115%, 69.906616%)" offset="0.257812"/><stop stop-opacity="1" stop-color="rgb(53.105164%, 23.851013%, 69.961548%)" offset="0.261719"/><stop stop-opacity="1" stop-color="rgb(53.387451%, 23.962402%, 70.018005%)" offset="0.265625"/><stop stop-opacity="1" stop-color="rgb(53.668213%, 24.073792%, 70.072937%)" offset="0.269531"/><stop stop-opacity="1" stop-color="rgb(53.9505%, 24.185181%, 70.129395%)" offset="0.273438"/><stop stop-opacity="1" stop-color="rgb(54.231262%, 24.29657%, 70.184326%)" offset="0.277344"/><stop stop-opacity="1" stop-color="rgb(54.51355%, 24.407959%, 70.240784%)" offset="0.28125"/><stop stop-opacity="1" stop-color="rgb(54.794312%, 24.517822%, 70.295715%)" offset="0.285156"/><stop stop-opacity="1" stop-color="rgb(55.076599%, 24.629211%, 70.352173%)" offset="0.289063"/><stop stop-opacity="1" stop-color="rgb(55.357361%, 24.740601%, 70.407104%)" offset="0.292969"/><stop stop-opacity="1" stop-color="rgb(55.639648%, 24.85199%, 70.462036%)" offset="0.296875"/><stop stop-opacity="1" stop-color="rgb(55.92041%, 24.961853%, 70.516968%)" offset="0.300781"/><stop stop-opacity="1" stop-color="rgb(56.202698%, 25.073242%, 70.573425%)" offset="0.304688"/><stop stop-opacity="1" stop-color="rgb(56.483459%, 25.184631%, 70.628357%)" offset="0.308594"/><stop stop-opacity="1" stop-color="rgb(56.765747%, 25.296021%, 70.684814%)" offset="0.3125"/><stop stop-opacity="1" stop-color="rgb(57.046509%, 25.40741%, 70.739746%)" offset="0.316406"/><stop stop-opacity="1" stop-color="rgb(57.328796%, 25.518799%, 70.796204%)" offset="0.320312"/><stop stop-opacity="1" stop-color="rgb(57.611084%, 25.628662%, 70.851135%)" offset="0.324219"/><stop stop-opacity="1" stop-color="rgb(57.893372%, 25.740051%, 70.907593%)" offset="0.328125"/><stop stop-opacity="1" stop-color="rgb(58.174133%, 25.85144%, 70.962524%)" offset="0.332031"/><stop stop-opacity="1" stop-color="rgb(58.456421%, 25.96283%, 71.018982%)" offset="0.335938"/><stop stop-opacity="1" stop-color="rgb(58.737183%, 26.072693%, 71.073914%)" offset="0.339844"/><stop stop-opacity="1" stop-color="rgb(59.01947%, 26.184082%, 71.130371%)" offset="0.34375"/><stop stop-opacity="1" stop-color="rgb(59.300232%, 26.295471%, 71.185303%)" offset="0.347656"/><stop stop-opacity="1" stop-color="rgb(59.58252%, 26.40686%, 71.240234%)" offset="0.351563"/><stop stop-opacity="1" stop-color="rgb(59.863281%, 26.51825%, 71.295166%)" offset="0.355469"/><stop stop-opacity="1" stop-color="rgb(60.145569%, 26.629639%, 71.351624%)" offset="0.359375"/><stop stop-opacity="1" stop-color="rgb(60.426331%, 26.739502%, 71.406555%)" offset="0.363281"/><stop stop-opacity="1" stop-color="rgb(60.708618%, 26.850891%, 71.463013%)" offset="0.367188"/><stop stop-opacity="1" stop-color="rgb(60.98938%, 26.96228%, 71.517944%)" offset="0.371094"/><stop stop-opacity="1" stop-color="rgb(61.271667%, 27.073669%, 71.574402%)" offset="0.375"/><stop stop-opacity="1" stop-color="rgb(61.552429%, 27.183533%, 71.629333%)" offset="0.378906"/><stop stop-opacity="1" stop-color="rgb(61.834717%, 27.294922%, 71.685791%)" offset="0.382812"/><stop stop-opacity="1" stop-color="rgb(62.115479%, 27.406311%, 71.740723%)" offset="0.386719"/><stop stop-opacity="1" stop-color="rgb(62.397766%, 27.5177%, 71.79718%)" offset="0.390625"/><stop stop-opacity="1" stop-color="rgb(62.678528%, 27.627563%, 71.852112%)" offset="0.394531"/><stop stop-opacity="1" stop-color="rgb(62.960815%, 27.738953%, 71.908569%)" offset="0.398438"/><stop stop-opacity="1" stop-color="rgb(63.241577%, 27.850342%, 71.963501%)" offset="0.402344"/><stop stop-opacity="1" stop-color="rgb(63.523865%, 27.961731%, 72.018433%)" offset="0.40625"/><stop stop-opacity="1" stop-color="rgb(63.804626%, 28.07312%, 72.073364%)" offset="0.410156"/><stop stop-opacity="1" stop-color="rgb(64.086914%, 28.184509%, 72.129822%)" offset="0.414063"/><stop stop-opacity="1" stop-color="rgb(64.367676%, 28.294373%, 72.184753%)" offset="0.417969"/><stop stop-opacity="1" stop-color="rgb(64.649963%, 28.405762%, 72.241211%)" offset="0.421875"/><stop stop-opacity="1" stop-color="rgb(64.932251%, 28.517151%, 72.296143%)" offset="0.425781"/><stop stop-opacity="1" stop-color="rgb(65.214539%, 28.62854%, 72.3526%)" offset="0.429688"/><stop stop-opacity="1" stop-color="rgb(65.4953%, 28.738403%, 72.407532%)" offset="0.433594"/><stop stop-opacity="1" stop-color="rgb(65.777588%, 28.849792%, 72.463989%)" offset="0.4375"/><stop stop-opacity="1" stop-color="rgb(66.05835%, 28.961182%, 72.518921%)" offset="0.441406"/><stop stop-opacity="1" stop-color="rgb(66.340637%, 29.072571%, 72.575378%)" offset="0.445312"/><stop stop-opacity="1" stop-color="rgb(66.621399%, 29.18396%, 72.63031%)" offset="0.449219"/><stop stop-opacity="1" stop-color="rgb(66.903687%, 29.295349%, 72.686768%)" offset="0.453125"/><stop stop-opacity="1" stop-color="rgb(67.184448%, 29.405212%, 72.741699%)" offset="0.457031"/><stop stop-opacity="1" stop-color="rgb(67.466736%, 29.516602%, 72.796631%)" offset="0.460938"/><stop stop-opacity="1" stop-color="rgb(67.747498%, 29.627991%, 72.851562%)" offset="0.464844"/><stop stop-opacity="1" stop-color="rgb(68.029785%, 29.73938%, 72.90802%)" offset="0.46875"/><stop stop-opacity="1" stop-color="rgb(68.310547%, 29.849243%, 72.962952%)" offset="0.472656"/><stop stop-opacity="1" stop-color="rgb(68.592834%, 29.960632%, 73.019409%)" offset="0.476562"/><stop stop-opacity="1" stop-color="rgb(68.873596%, 30.072021%, 73.074341%)" offset="0.480469"/><stop stop-opacity="1" stop-color="rgb(69.155884%, 30.183411%, 73.130798%)" offset="0.484375"/><stop stop-opacity="1" stop-color="rgb(69.436646%, 30.293274%, 73.18573%)" offset="0.488281"/><stop stop-opacity="1" stop-color="rgb(69.718933%, 30.404663%, 73.242188%)" offset="0.492188"/><stop stop-opacity="1" stop-color="rgb(69.999695%, 30.516052%, 73.297119%)" offset="0.496094"/><stop stop-opacity="1" stop-color="rgb(70.281982%, 30.627441%, 73.353577%)" offset="0.5"/><stop stop-opacity="1" stop-color="rgb(70.562744%, 30.738831%, 73.408508%)" offset="0.503906"/><stop stop-opacity="1" stop-color="rgb(70.845032%, 30.85022%, 73.464966%)" offset="0.507812"/><stop stop-opacity="1" stop-color="rgb(71.125793%, 30.960083%, 73.519897%)" offset="0.511719"/><stop stop-opacity="1" stop-color="rgb(71.408081%, 31.071472%, 73.574829%)" offset="0.515625"/><stop stop-opacity="1" stop-color="rgb(71.690369%, 31.182861%, 73.629761%)" offset="0.519531"/><stop stop-opacity="1" stop-color="rgb(71.972656%, 31.29425%, 73.686218%)" offset="0.523438"/><stop stop-opacity="1" stop-color="rgb(72.253418%, 31.404114%, 73.74115%)" offset="0.527344"/><stop stop-opacity="1" stop-color="rgb(72.535706%, 31.515503%, 73.797607%)" offset="0.53125"/><stop stop-opacity="1" stop-color="rgb(72.816467%, 31.626892%, 73.852539%)" offset="0.535156"/><stop stop-opacity="1" stop-color="rgb(73.098755%, 31.738281%, 73.908997%)" offset="0.539063"/><stop stop-opacity="1" stop-color="rgb(73.379517%, 31.84967%, 73.963928%)" offset="0.542969"/><stop stop-opacity="1" stop-color="rgb(73.661804%, 31.96106%, 74.020386%)" offset="0.546875"/><stop stop-opacity="1" stop-color="rgb(73.942566%, 32.070923%, 74.075317%)" offset="0.550781"/><stop stop-opacity="1" stop-color="rgb(74.224854%, 32.182312%, 74.131775%)" offset="0.554688"/><stop stop-opacity="1" stop-color="rgb(74.505615%, 32.293701%, 74.186707%)" offset="0.558594"/><stop stop-opacity="1" stop-color="rgb(74.787903%, 32.40509%, 74.243164%)" offset="0.5625"/><stop stop-opacity="1" stop-color="rgb(75.068665%, 32.514954%, 74.298096%)" offset="0.566406"/><stop stop-opacity="1" stop-color="rgb(75.350952%, 32.626343%, 74.353027%)" offset="0.570312"/><stop stop-opacity="1" stop-color="rgb(75.631714%, 32.737732%, 74.407959%)" offset="0.574219"/><stop stop-opacity="1" stop-color="rgb(75.914001%, 32.849121%, 74.464417%)" offset="0.578125"/><stop stop-opacity="1" stop-color="rgb(76.194763%, 32.958984%, 74.519348%)" offset="0.582031"/><stop stop-opacity="1" stop-color="rgb(76.477051%, 33.070374%, 74.575806%)" offset="0.585938"/><stop stop-opacity="1" stop-color="rgb(76.757812%, 33.181763%, 74.630737%)" offset="0.589844"/><stop stop-opacity="1" stop-color="rgb(77.0401%, 33.293152%, 74.687195%)" offset="0.59375"/><stop stop-opacity="1" stop-color="rgb(77.320862%, 33.404541%, 74.742126%)" offset="0.597656"/><stop stop-opacity="1" stop-color="rgb(77.603149%, 33.51593%, 74.798584%)" offset="0.601562"/><stop stop-opacity="1" stop-color="rgb(77.883911%, 33.625793%, 74.853516%)" offset="0.605469"/><stop stop-opacity="1" stop-color="rgb(78.166199%, 33.737183%, 74.909973%)" offset="0.609375"/><stop stop-opacity="1" stop-color="rgb(78.448486%, 33.848572%, 74.964905%)" offset="0.613281"/><stop stop-opacity="1" stop-color="rgb(78.730774%, 33.959961%, 75.021362%)" offset="0.617188"/><stop stop-opacity="1" stop-color="rgb(79.011536%, 34.069824%, 75.076294%)" offset="0.621094"/><stop stop-opacity="1" stop-color="rgb(79.293823%, 34.181213%, 75.131226%)" offset="0.625"/><stop stop-opacity="1" stop-color="rgb(79.574585%, 34.292603%, 75.186157%)" offset="0.628906"/><stop stop-opacity="1" stop-color="rgb(79.856873%, 34.403992%, 75.242615%)" offset="0.632812"/><stop stop-opacity="1" stop-color="rgb(80.137634%, 34.515381%, 75.297546%)" offset="0.636719"/><stop stop-opacity="1" stop-color="rgb(80.419922%, 34.62677%, 75.354004%)" offset="0.640625"/><stop stop-opacity="1" stop-color="rgb(80.700684%, 34.736633%, 75.408936%)" offset="0.644531"/><stop stop-opacity="1" stop-color="rgb(80.982971%, 34.848022%, 75.465393%)" offset="0.648438"/><stop stop-opacity="1" stop-color="rgb(81.263733%, 34.959412%, 75.520325%)" offset="0.652344"/><stop stop-opacity="1" stop-color="rgb(81.546021%, 35.070801%, 75.576782%)" offset="0.65625"/><stop stop-opacity="1" stop-color="rgb(81.826782%, 35.180664%, 75.631714%)" offset="0.660156"/><stop stop-opacity="1" stop-color="rgb(82.10907%, 35.292053%, 75.688171%)" offset="0.664062"/><stop stop-opacity="1" stop-color="rgb(82.389832%, 35.403442%, 75.743103%)" offset="0.667969"/><stop stop-opacity="1" stop-color="rgb(82.672119%, 35.514832%, 75.799561%)" offset="0.671875"/><stop stop-opacity="1" stop-color="rgb(82.952881%, 35.624695%, 75.854492%)" offset="0.675781"/><stop stop-opacity="1" stop-color="rgb(83.235168%, 35.736084%, 75.909424%)" offset="0.679688"/><stop stop-opacity="1" stop-color="rgb(83.51593%, 35.847473%, 75.964355%)" offset="0.683594"/><stop stop-opacity="1" stop-color="rgb(83.798218%, 35.958862%, 76.020813%)" offset="0.6875"/><stop stop-opacity="1" stop-color="rgb(84.078979%, 36.070251%, 76.075745%)" offset="0.691406"/><stop stop-opacity="1" stop-color="rgb(84.361267%, 36.181641%, 76.132202%)" offset="0.695313"/><stop stop-opacity="1" stop-color="rgb(84.642029%, 36.291504%, 76.187134%)" offset="0.699219"/><stop stop-opacity="1" stop-color="rgb(84.924316%, 36.402893%, 76.243591%)" offset="0.703125"/><stop stop-opacity="1" stop-color="rgb(85.206604%, 36.514282%, 76.298523%)" offset="0.707031"/><stop stop-opacity="1" stop-color="rgb(85.488892%, 36.625671%, 76.35498%)" offset="0.710938"/><stop stop-opacity="1" stop-color="rgb(85.769653%, 36.735535%, 76.409912%)" offset="0.714844"/><stop stop-opacity="1" stop-color="rgb(86.051941%, 36.846924%, 76.46637%)" offset="0.71875"/><stop stop-opacity="1" stop-color="rgb(86.332703%, 36.958313%, 76.521301%)" offset="0.722656"/><stop stop-opacity="1" stop-color="rgb(86.61499%, 37.069702%, 76.577759%)" offset="0.726562"/><stop stop-opacity="1" stop-color="rgb(86.895752%, 37.181091%, 76.63269%)" offset="0.730469"/><stop stop-opacity="1" stop-color="rgb(87.17804%, 37.29248%, 76.687622%)" offset="0.734375"/><stop stop-opacity="1" stop-color="rgb(87.458801%, 37.402344%, 76.742554%)" offset="0.738281"/><stop stop-opacity="1" stop-color="rgb(87.741089%, 37.513733%, 76.799011%)" offset="0.742188"/><stop stop-opacity="1" stop-color="rgb(88.021851%, 37.625122%, 76.853943%)" offset="0.746094"/><stop stop-opacity="1" stop-color="rgb(88.304138%, 37.736511%, 76.9104%)" offset="0.75"/><stop stop-opacity="1" stop-color="rgb(88.5849%, 37.846375%, 76.965332%)" offset="0.753906"/><stop stop-opacity="1" stop-color="rgb(88.867188%, 37.957764%, 77.02179%)" offset="0.757812"/><stop stop-opacity="1" stop-color="rgb(89.147949%, 38.069153%, 77.076721%)" offset="0.761719"/><stop stop-opacity="1" stop-color="rgb(89.430237%, 38.180542%, 77.133179%)" offset="0.765625"/><stop stop-opacity="1" stop-color="rgb(89.710999%, 38.290405%, 77.18811%)" offset="0.769531"/><stop stop-opacity="1" stop-color="rgb(89.993286%, 38.401794%, 77.244568%)" offset="0.773438"/><stop stop-opacity="1" stop-color="rgb(90.274048%, 38.513184%, 77.2995%)" offset="0.777344"/><stop stop-opacity="1" stop-color="rgb(90.556335%, 38.624573%, 77.355957%)" offset="0.78125"/><stop stop-opacity="1" stop-color="rgb(90.837097%, 38.735962%, 77.410889%)" offset="0.785156"/><stop stop-opacity="1" stop-color="rgb(91.119385%, 38.847351%, 77.46582%)" offset="0.789062"/><stop stop-opacity="1" stop-color="rgb(91.400146%, 38.957214%, 77.520752%)" offset="0.792969"/><stop stop-opacity="1" stop-color="rgb(91.682434%, 39.068604%, 77.577209%)" offset="0.796875"/><stop stop-opacity="1" stop-color="rgb(91.963196%, 39.179993%, 77.632141%)" offset="0.800781"/><stop stop-opacity="1" stop-color="rgb(92.245483%, 39.291382%, 77.688599%)" offset="0.804687"/><stop stop-opacity="1" stop-color="rgb(92.527771%, 39.401245%, 77.74353%)" offset="0.808594"/><stop stop-opacity="1" stop-color="rgb(92.810059%, 39.512634%, 77.799988%)" offset="0.8125"/><stop stop-opacity="1" stop-color="rgb(93.09082%, 39.624023%, 77.854919%)" offset="0.816406"/><stop stop-opacity="1" stop-color="rgb(93.373108%, 39.735413%, 77.911377%)" offset="0.820312"/><stop stop-opacity="1" stop-color="rgb(93.65387%, 39.846802%, 77.966309%)" offset="0.824219"/><stop stop-opacity="1" stop-color="rgb(93.936157%, 39.958191%, 78.022766%)" offset="0.828125"/><stop stop-opacity="1" stop-color="rgb(94.216919%, 40.068054%, 78.077698%)" offset="0.832031"/><stop stop-opacity="1" stop-color="rgb(94.499207%, 40.179443%, 78.134155%)" offset="0.835938"/><stop stop-opacity="1" stop-color="rgb(94.779968%, 40.290833%, 78.189087%)" offset="0.839844"/><stop stop-opacity="1" stop-color="rgb(95.062256%, 40.402222%, 78.244019%)" offset="0.84375"/><stop stop-opacity="1" stop-color="rgb(95.343018%, 40.512085%, 78.29895%)" offset="0.847656"/><stop stop-opacity="1" stop-color="rgb(95.625305%, 40.623474%, 78.355408%)" offset="0.851562"/><stop stop-opacity="1" stop-color="rgb(95.906067%, 40.734863%, 78.410339%)" offset="0.855469"/><stop stop-opacity="1" stop-color="rgb(96.188354%, 40.846252%, 78.466797%)" offset="0.859375"/><stop stop-opacity="1" stop-color="rgb(96.469116%, 40.956116%, 78.521729%)" offset="0.863281"/><stop stop-opacity="1" stop-color="rgb(96.751404%, 41.067505%, 78.578186%)" offset="0.867188"/><stop stop-opacity="1" stop-color="rgb(97.032166%, 41.178894%, 78.633118%)" offset="0.871094"/><stop stop-opacity="1" stop-color="rgb(97.314453%, 41.290283%, 78.689575%)" offset="0.875"/><stop stop-opacity="1" stop-color="rgb(97.595215%, 41.401672%, 78.744507%)" offset="0.878906"/><stop stop-opacity="1" stop-color="rgb(97.877502%, 41.513062%, 78.800964%)" offset="0.882812"/><stop stop-opacity="1" stop-color="rgb(98.158264%, 41.622925%, 78.855896%)" offset="0.886719"/><stop stop-opacity="1" stop-color="rgb(98.440552%, 41.734314%, 78.912354%)" offset="0.890625"/><stop stop-opacity="1" stop-color="rgb(98.721313%, 41.845703%, 78.967285%)" offset="0.894531"/><stop stop-opacity="1" stop-color="rgb(99.003601%, 41.957092%, 79.022217%)" offset="0.898438"/><stop stop-opacity="1" stop-color="rgb(99.285889%, 42.066956%, 79.077148%)" offset="0.902344"/><stop stop-opacity="1" stop-color="rgb(99.568176%, 42.178345%, 79.133606%)" offset="0.90625"/><stop stop-opacity="1" stop-color="rgb(99.783325%, 42.263794%, 79.176331%)" offset="0.910156"/><stop stop-opacity="1" stop-color="rgb(100%, 42.349243%, 79.219055%)" offset="0.914063"/><stop stop-opacity="1" stop-color="rgb(100%, 42.349243%, 79.219055%)" offset="0.921875"/><stop stop-opacity="1" stop-color="rgb(100%, 42.349243%, 79.219055%)" offset="0.9375"/><stop stop-opacity="1" stop-color="rgb(100%, 42.349243%, 79.219055%)" offset="1"/></linearGradient><clipPath id="629be470ae"><rect x="0" width="1216" y="0" height="266"/></clipPath><clipPath id="e2efcc8d18"><rect x="0" width="1216" y="0" height="266"/></clipPath><clipPath id="cdf9875c78"><rect x="0" width="1217" y="0" height="267"/></clipPath></defs><g transform="matrix(1, 0, 0, 1, 160, 0)"><g clip-path="url(#3b6f40a53d)"><g fill="#6c32ad" fill-opacity="1"><g transform="translate(1.058964, 234.108684)"><g><path d="M 40.59375 -37.3125 L 127.421875 -37.3125 L 123.4375 -63.828125 L 44.59375 -63.828125 Z M 83.546875 -111 L 108.1875 -53.96875 L 107.71875 -45.53125 L 128.828125 0 L 166.859375 0 L 83.546875 -173.890625 L 0.234375 0 L 38.015625 0 L 59.609375 -46.9375 L 58.90625 -54.4375 Z M 83.546875 -111 "/></g></g></g><g fill="#6c32ad" fill-opacity="1"><g transform="translate(153.35569, 234.108684)"><g><path d="M 9.859375 7.515625 C 10.484375 16.898438 13.023438 25.226562 17.484375 32.5 C 21.941406 39.78125 28.394531 45.410156 36.84375 49.390625 C 45.289062 53.378906 55.773438 55.375 68.296875 55.375 C 78.617188 55.375 88.160156 53.378906 96.921875 49.390625 C 105.679688 45.410156 112.679688 39.113281 117.921875 30.5 C 123.160156 21.894531 125.78125 10.945312 125.78125 -2.34375 L 125.78125 -107.953125 L 96.453125 -107.953125 L 96.453125 -2.34375 C 96.453125 5.007812 95.082031 11.109375 92.34375 15.953125 C 89.601562 20.804688 86.003906 24.40625 81.546875 26.75 C 77.085938 29.09375 72.351562 30.265625 67.34375 30.265625 C 61.875 30.265625 57.101562 29.328125 53.03125 27.453125 C 48.96875 25.578125 45.757812 22.957031 43.40625 19.59375 C 41.0625 16.226562 39.8125 12.203125 39.65625 7.515625 Z M 7.75 -54.90625 C 7.75 -43.019531 10.171875 -32.96875 15.015625 -24.75 C 19.867188 -16.539062 26.285156 -10.320312 34.265625 -6.09375 C 42.242188 -1.875 50.691406 0.234375 59.609375 0.234375 C 68.679688 0.234375 76.695312 -1.914062 83.65625 -6.21875 C 90.625 -10.519531 96.101562 -16.816406 100.09375 -25.109375 C 104.082031 -33.398438 106.078125 -43.332031 106.078125 -54.90625 C 106.078125 -66.644531 104.082031 -76.617188 100.09375 -84.828125 C 96.101562 -93.046875 90.625 -99.34375 83.65625 -103.71875 C 76.695312 -108.101562 68.679688 -110.296875 59.609375 -110.296875 C 50.691406 -110.296875 42.242188 -108.179688 34.265625 -103.953125 C 26.285156 -99.734375 19.867188 -93.515625 15.015625 -85.296875 C 10.171875 -77.085938 7.75 -66.957031 7.75 -54.90625 Z M 39.1875 -54.90625 C 39.1875 -61.476562 40.515625 -66.992188 43.171875 -71.453125 C 45.835938 -75.910156 49.4375 -79.3125 53.96875 -81.65625 C 58.507812 -84.007812 63.363281 -85.1875 68.53125 -85.1875 C 71.96875 -85.1875 75.328125 -84.519531 78.609375 -83.1875 C 81.898438 -81.863281 84.910156 -79.945312 87.640625 -77.4375 C 90.378906 -74.9375 92.53125 -71.804688 94.09375 -68.046875 C 95.664062 -64.296875 96.453125 -59.914062 96.453125 -54.90625 C 96.453125 -48.34375 95.082031 -42.832031 92.34375 -38.375 C 89.601562 -33.914062 86.082031 -30.550781 81.78125 -28.28125 C 77.476562 -26.007812 73.0625 -24.875 68.53125 -24.875 C 63.363281 -24.875 58.507812 -26.046875 53.96875 -28.390625 C 49.4375 -30.742188 45.835938 -34.148438 43.171875 -38.609375 C 40.515625 -43.066406 39.1875 -48.5 39.1875 -54.90625 Z M 39.1875 -54.90625 "/></g></g></g><g fill="#6c32ad" fill-opacity="1"><g transform="translate(279.135424, 234.108684)"><g><path d="M 44.828125 -107.953125 L 15.015625 -107.953125 L 15.015625 0 L 44.828125 0 Z M 76.5 -76.265625 L 90.34375 -102.078125 C 88.15625 -104.898438 85.300781 -107.015625 81.78125 -108.421875 C 78.257812 -109.828125 74.546875 -110.53125 70.640625 -110.53125 C 65.003906 -110.53125 59.523438 -108.535156 54.203125 -104.546875 C 48.890625 -100.554688 44.585938 -95.234375 41.296875 -88.578125 C 38.015625 -81.929688 36.375 -74.304688 36.375 -65.703125 L 44.828125 -57.265625 C 44.828125 -62.421875 45.488281 -66.835938 46.8125 -70.515625 C 48.144531 -74.191406 50.140625 -77.046875 52.796875 -79.078125 C 55.460938 -81.117188 58.671875 -82.140625 62.421875 -82.140625 C 65.546875 -82.140625 68.164062 -81.628906 70.28125 -80.609375 C 72.394531 -79.585938 74.46875 -78.140625 76.5 -76.265625 Z M 76.5 -76.265625 "/></g></g></g><g fill="#6c32ad" fill-opacity="1"><g transform="translate(356.105087, 234.108684)"><g><path d="M 7.75 -53.96875 C 7.75 -42.863281 10.367188 -33.046875 15.609375 -24.515625 C 20.847656 -15.992188 27.960938 -9.382812 36.953125 -4.6875 C 45.953125 0 56.160156 2.34375 67.578125 2.34375 C 79.003906 2.34375 89.210938 0 98.203125 -4.6875 C 107.203125 -9.382812 114.320312 -15.992188 119.5625 -24.515625 C 124.800781 -33.046875 127.421875 -42.863281 127.421875 -53.96875 C 127.421875 -65.238281 124.800781 -75.097656 119.5625 -83.546875 C 114.320312 -91.992188 107.203125 -98.5625 98.203125 -103.25 C 89.210938 -107.945312 79.003906 -110.296875 67.578125 -110.296875 C 56.160156 -110.296875 45.953125 -107.945312 36.953125 -103.25 C 27.960938 -98.5625 20.847656 -91.992188 15.609375 -83.546875 C 10.367188 -75.097656 7.75 -65.238281 7.75 -53.96875 Z M 38.71875 -53.96875 C 38.71875 -60.070312 40.007812 -65.46875 42.59375 -70.15625 C 45.175781 -74.851562 48.65625 -78.453125 53.03125 -80.953125 C 57.414062 -83.460938 62.265625 -84.71875 67.578125 -84.71875 C 72.898438 -84.71875 77.75 -83.460938 82.125 -80.953125 C 86.507812 -78.453125 89.992188 -74.851562 92.578125 -70.15625 C 95.160156 -65.46875 96.453125 -60.070312 96.453125 -53.96875 C 96.453125 -47.875 95.160156 -42.519531 92.578125 -37.90625 C 89.992188 -33.289062 86.507812 -29.691406 82.125 -27.109375 C 77.75 -24.523438 72.898438 -23.234375 67.578125 -23.234375 C 62.265625 -23.234375 57.414062 -24.523438 53.03125 -27.109375 C 48.65625 -29.691406 45.175781 -33.289062 42.59375 -37.90625 C 40.007812 -42.519531 38.71875 -47.875 38.71875 -53.96875 Z M 38.71875 -53.96875 "/></g></g></g><g fill="#3ec2cf" fill-opacity="1"><g transform="translate(476.729233, 234.108684)"><g><path d="M 17.828125 -164.265625 L 17.828125 0 L 116.859375 0 L 116.859375 -29.328125 L 51.390625 -29.328125 L 51.390625 -164.265625 Z M 17.828125 -164.265625 "/></g></g></g><g fill="#3ec2cf" fill-opacity="1"><g transform="translate(580.45058, 234.108684)"><g><path d="M 17.828125 -164.265625 L 17.828125 0 L 51.859375 0 L 51.859375 -164.265625 Z M 17.828125 -164.265625 "/></g></g></g><g fill="#3ec2cf" fill-opacity="1"><g transform="translate(635.361819, 234.108684)"><g><path d="M 134.703125 -164.265625 L 134.703125 -62.421875 L 17.828125 -172.484375 L 17.828125 0 L 50.21875 0 L 50.21875 -101.84375 L 167.09375 8.21875 L 167.09375 -164.265625 Z M 134.703125 -164.265625 "/></g></g></g><g fill="#3ec2cf" fill-opacity="1"><g transform="translate(805.727663, 234.108684)"><g><path d="M 44.828125 -82.140625 C 44.828125 -93.085938 47.289062 -102.550781 52.21875 -110.53125 C 57.144531 -118.507812 63.597656 -124.648438 71.578125 -128.953125 C 79.554688 -133.253906 88.238281 -135.40625 97.625 -135.40625 C 105.445312 -135.40625 112.40625 -134.382812 118.5 -132.34375 C 124.601562 -130.3125 130.117188 -127.578125 135.046875 -124.140625 C 139.984375 -120.703125 144.25 -116.945312 147.84375 -112.875 L 147.84375 -150.65625 C 141.113281 -155.976562 133.796875 -160.125 125.890625 -163.09375 C 117.992188 -166.070312 108.023438 -167.5625 95.984375 -167.5625 C 83.460938 -167.5625 71.84375 -165.523438 61.125 -161.453125 C 50.414062 -157.390625 41.109375 -151.523438 33.203125 -143.859375 C 25.304688 -136.191406 19.207031 -127.15625 14.90625 -116.75 C 10.601562 -106.34375 8.453125 -94.804688 8.453125 -82.140625 C 8.453125 -69.460938 10.601562 -57.921875 14.90625 -47.515625 C 19.207031 -37.117188 25.304688 -28.085938 33.203125 -20.421875 C 41.109375 -12.753906 50.414062 -6.882812 61.125 -2.8125 C 71.84375 1.25 83.460938 3.28125 95.984375 3.28125 C 108.023438 3.28125 117.992188 1.796875 125.890625 -1.171875 C 133.796875 -4.140625 141.113281 -8.285156 147.84375 -13.609375 L 147.84375 -51.390625 C 144.25 -47.328125 139.984375 -43.570312 135.046875 -40.125 C 130.117188 -36.6875 124.601562 -33.945312 118.5 -31.90625 C 112.40625 -29.875 105.445312 -28.859375 97.625 -28.859375 C 88.238281 -28.859375 79.554688 -31.007812 71.578125 -35.3125 C 63.597656 -39.613281 57.144531 -45.789062 52.21875 -53.84375 C 47.289062 -61.90625 44.828125 -71.335938 44.828125 -82.140625 Z M 44.828125 -82.140625 "/></g></g></g></g></g><g clip-path="url(#f7fdf12ee8)"><g clip-path="url(#a9dd54c700)"><g transform="matrix(1, 0, 0, 1, 109, 46)"><g clip-path="url(#10611591a6)"><g clip-path="url(#b45e0a9534)"><g clip-path="url(#63c38eb9dd)"><path fill="#6c32ad" d="M 0.0742188 0.113281 L 31.324219 0.113281 L 31.324219 315.425781 L 0.0742188 315.425781 Z M 0.0742188 0.113281 " fill-opacity="1" fill-rule="nonzero"/></g></g></g></g></g></g><g clip-path="url(#e88781d909)"><g transform="matrix(1, 0, 0, 1, 20, 145)"><g clip-path="url(#cdf9875c78)"><g fill="#6c32ad" fill-opacity="1"><g transform="translate(153.828297, 198.641183)"><g><path d="M 24.6875 -19.140625 L 24.6875 0 L 33.84375 0 L 33.84375 -20.109375 C 33.84375 -23.890625 32.929688 -26.835938 31.109375 -28.953125 C 29.285156 -31.078125 26.503906 -32.140625 22.765625 -32.140625 C 20.535156 -32.140625 18.632812 -31.671875 17.0625 -30.734375 C 15.488281 -29.796875 14.222656 -28.441406 13.265625 -26.671875 L 13.265625 -31.453125 L 4.375 -31.453125 L 4.375 0 L 13.265625 0 L 13.265625 -19.140625 C 13.265625 -20.460938 13.515625 -21.601562 14.015625 -22.5625 C 14.515625 -23.519531 15.242188 -24.257812 16.203125 -24.78125 C 17.160156 -25.3125 18.253906 -25.578125 19.484375 -25.578125 C 21.304688 -25.578125 22.628906 -25.03125 23.453125 -23.9375 C 24.273438 -22.84375 24.6875 -21.242188 24.6875 -19.140625 Z M 24.6875 -19.140625 "/></g></g></g><g fill="#6c32ad" fill-opacity="1"><g transform="translate(187.805155, 198.641183)"><g><path d="M 24.6875 -19.140625 L 24.6875 0 L 33.84375 0 L 33.84375 -20.109375 C 33.84375 -23.890625 32.929688 -26.835938 31.109375 -28.953125 C 29.285156 -31.078125 26.503906 -32.140625 22.765625 -32.140625 C 20.535156 -32.140625 18.632812 -31.671875 17.0625 -30.734375 C 15.488281 -29.796875 14.222656 -28.441406 13.265625 -26.671875 L 13.265625 -31.453125 L 4.375 -31.453125 L 4.375 0 L 13.265625 0 L 13.265625 -19.140625 C 13.265625 -20.460938 13.515625 -21.601562 14.015625 -22.5625 C 14.515625 -23.519531 15.242188 -24.257812 16.203125 -24.78125 C 17.160156 -25.3125 18.253906 -25.578125 19.484375 -25.578125 C 21.304688 -25.578125 22.628906 -25.03125 23.453125 -23.9375 C 24.273438 -22.84375 24.6875 -21.242188 24.6875 -19.140625 Z M 24.6875 -19.140625 "/></g></g></g><g fill="#6c32ad" fill-opacity="1"><g transform="translate(221.782013, 198.641183)"><g><path d="M 2.25 -15.71875 C 2.25 -12.488281 3.015625 -9.628906 4.546875 -7.140625 C 6.078125 -4.660156 8.148438 -2.734375 10.765625 -1.359375 C 13.390625 0.00390625 16.363281 0.6875 19.6875 0.6875 C 23.019531 0.6875 25.992188 0.00390625 28.609375 -1.359375 C 31.234375 -2.734375 33.304688 -4.660156 34.828125 -7.140625 C 36.359375 -9.628906 37.125 -12.488281 37.125 -15.71875 C 37.125 -19.007812 36.359375 -21.882812 34.828125 -24.34375 C 33.304688 -26.800781 31.234375 -28.710938 28.609375 -30.078125 C 25.992188 -31.453125 23.019531 -32.140625 19.6875 -32.140625 C 16.363281 -32.140625 13.390625 -31.453125 10.765625 -30.078125 C 8.148438 -28.710938 6.078125 -26.800781 4.546875 -24.34375 C 3.015625 -21.882812 2.25 -19.007812 2.25 -15.71875 Z M 11.28125 -15.71875 C 11.28125 -17.5 11.65625 -19.070312 12.40625 -20.4375 C 13.15625 -21.8125 14.171875 -22.863281 15.453125 -23.59375 C 16.734375 -24.320312 18.144531 -24.6875 19.6875 -24.6875 C 21.238281 -24.6875 22.648438 -24.320312 23.921875 -23.59375 C 25.203125 -22.863281 26.21875 -21.8125 26.96875 -20.4375 C 27.726562 -19.070312 28.109375 -17.5 28.109375 -15.71875 C 28.109375 -13.945312 27.726562 -12.390625 26.96875 -11.046875 C 26.21875 -9.703125 25.203125 -8.648438 23.921875 -7.890625 C 22.648438 -7.140625 21.238281 -6.765625 19.6875 -6.765625 C 18.144531 -6.765625 16.734375 -7.140625 15.453125 -7.890625 C 14.171875 -8.648438 13.15625 -9.703125 12.40625 -11.046875 C 11.65625 -12.390625 11.28125 -13.945312 11.28125 -15.71875 Z M 11.28125 -15.71875 "/></g></g></g><g fill="#6c32ad" fill-opacity="1"><g transform="translate(256.921079, 198.641183)"><g><path d="M -0.140625 -31.453125 L 17.09375 3.28125 L 34.328125 -31.453125 L 24.8125 -31.453125 L 17.09375 -12.515625 L 9.375 -31.453125 Z M -0.140625 -31.453125 "/></g></g></g><g fill="#6c32ad" fill-opacity="1"><g transform="translate(286.864405, 198.641183)"><g><path d="M 10.671875 -9.78125 C 10.671875 -10.6875 10.875 -11.445312 11.28125 -12.0625 C 11.6875 -12.675781 12.320312 -13.15625 13.1875 -13.5 C 14.0625 -13.84375 15.179688 -14.015625 16.546875 -14.015625 C 18.234375 -14.015625 19.835938 -13.785156 21.359375 -13.328125 C 22.890625 -12.878906 24.269531 -12.195312 25.5 -11.28125 L 25.5 -15.390625 C 25.039062 -15.929688 24.285156 -16.5 23.234375 -17.09375 C 22.191406 -17.6875 20.90625 -18.1875 19.375 -18.59375 C 17.851562 -19.007812 16.085938 -19.21875 14.078125 -19.21875 C 10.160156 -19.21875 7.128906 -18.328125 4.984375 -16.546875 C 2.847656 -14.765625 1.78125 -12.347656 1.78125 -9.296875 C 1.78125 -7.148438 2.289062 -5.335938 3.3125 -3.859375 C 4.34375 -2.378906 5.703125 -1.25 7.390625 -0.46875 C 9.078125 0.300781 10.898438 0.6875 12.859375 0.6875 C 14.765625 0.6875 16.59375 0.34375 18.34375 -0.34375 C 20.101562 -1.03125 21.539062 -2.054688 22.65625 -3.421875 C 23.78125 -4.785156 24.34375 -6.472656 24.34375 -8.484375 L 23.25 -12.578125 C 23.25 -11.078125 22.90625 -9.789062 22.21875 -8.71875 C 21.539062 -7.644531 20.65625 -6.820312 19.5625 -6.25 C 18.46875 -5.6875 17.234375 -5.40625 15.859375 -5.40625 C 14.898438 -5.40625 14.019531 -5.570312 13.21875 -5.90625 C 12.425781 -6.25 11.800781 -6.75 11.34375 -7.40625 C 10.894531 -8.070312 10.671875 -8.863281 10.671875 -9.78125 Z M 7.25 -22.5625 C 7.707031 -22.882812 8.410156 -23.269531 9.359375 -23.71875 C 10.316406 -24.175781 11.457031 -24.5625 12.78125 -24.875 C 14.101562 -25.195312 15.492188 -25.359375 16.953125 -25.359375 C 17.910156 -25.359375 18.773438 -25.265625 19.546875 -25.078125 C 20.328125 -24.898438 21 -24.609375 21.5625 -24.203125 C 22.132812 -23.796875 22.554688 -23.285156 22.828125 -22.671875 C 23.109375 -22.054688 23.25 -21.3125 23.25 -20.4375 L 23.25 0 L 31.796875 0 L 31.796875 -22.296875 C 31.796875 -24.429688 31.203125 -26.238281 30.015625 -27.71875 C 28.828125 -29.207031 27.1875 -30.335938 25.09375 -31.109375 C 23 -31.878906 20.609375 -32.265625 17.921875 -32.265625 C 14.992188 -32.265625 12.34375 -31.863281 9.96875 -31.0625 C 7.601562 -30.269531 5.601562 -29.441406 3.96875 -28.578125 Z M 7.25 -22.5625 "/></g></g></g><g fill="#6c32ad" fill-opacity="1"><g transform="translate(318.243389, 198.641183)"><g><path d="M 11.078125 -15.71875 C 11.078125 -17.5 11.484375 -19.070312 12.296875 -20.4375 C 13.117188 -21.8125 14.222656 -22.894531 15.609375 -23.6875 C 17.003906 -24.488281 18.546875 -24.890625 20.234375 -24.890625 C 21.515625 -24.890625 22.789062 -24.679688 24.0625 -24.265625 C 25.34375 -23.859375 26.519531 -23.28125 27.59375 -22.53125 C 28.664062 -21.78125 29.472656 -20.898438 30.015625 -19.890625 L 30.015625 -28.984375 C 28.921875 -29.941406 27.492188 -30.707031 25.734375 -31.28125 C 23.984375 -31.851562 21.945312 -32.140625 19.625 -32.140625 C 16.289062 -32.140625 13.289062 -31.453125 10.625 -30.078125 C 7.957031 -28.710938 5.859375 -26.800781 4.328125 -24.34375 C 2.804688 -21.882812 2.046875 -19.007812 2.046875 -15.71875 C 2.046875 -12.488281 2.804688 -9.628906 4.328125 -7.140625 C 5.859375 -4.660156 7.957031 -2.734375 10.625 -1.359375 C 13.289062 0.00390625 16.289062 0.6875 19.625 0.6875 C 21.945312 0.6875 23.984375 0.398438 25.734375 -0.171875 C 27.492188 -0.742188 28.921875 -1.53125 30.015625 -2.53125 L 30.015625 -11.625 C 29.472656 -10.625 28.6875 -9.742188 27.65625 -8.984375 C 26.632812 -8.234375 25.484375 -7.640625 24.203125 -7.203125 C 22.929688 -6.773438 21.609375 -6.5625 20.234375 -6.5625 C 18.546875 -6.5625 17.003906 -6.945312 15.609375 -7.71875 C 14.222656 -8.5 13.117188 -9.570312 12.296875 -10.9375 C 11.484375 -12.300781 11.078125 -13.894531 11.078125 -15.71875 Z M 11.078125 -15.71875 "/></g></g></g><g fill="#6c32ad" fill-opacity="1"><g transform="translate(347.434699, 198.641183)"><g><path d="M 3.96875 -43.625 C 3.96875 -42.207031 4.488281 -41.019531 5.53125 -40.0625 C 6.582031 -39.101562 7.835938 -38.625 9.296875 -38.625 C 10.753906 -38.625 11.992188 -39.101562 13.015625 -40.0625 C 14.046875 -41.019531 14.5625 -42.207031 14.5625 -43.625 C 14.5625 -45.082031 14.046875 -46.273438 13.015625 -47.203125 C 11.992188 -48.140625 10.753906 -48.609375 9.296875 -48.609375 C 7.835938 -48.609375 6.582031 -48.140625 5.53125 -47.203125 C 4.488281 -46.273438 3.96875 -45.082031 3.96875 -43.625 Z M 4.921875 -31.453125 L 4.921875 0 L 13.53125 0 L 13.53125 -31.453125 Z M 4.921875 -31.453125 "/></g></g></g><g fill="#6c32ad" fill-opacity="1"><g transform="translate(361.722449, 198.641183)"><g><path d="M 2.25 -15.71875 C 2.25 -12.488281 3.015625 -9.628906 4.546875 -7.140625 C 6.078125 -4.660156 8.148438 -2.734375 10.765625 -1.359375 C 13.390625 0.00390625 16.363281 0.6875 19.6875 0.6875 C 23.019531 0.6875 25.992188 0.00390625 28.609375 -1.359375 C 31.234375 -2.734375 33.304688 -4.660156 34.828125 -7.140625 C 36.359375 -9.628906 37.125 -12.488281 37.125 -15.71875 C 37.125 -19.007812 36.359375 -21.882812 34.828125 -24.34375 C 33.304688 -26.800781 31.234375 -28.710938 28.609375 -30.078125 C 25.992188 -31.453125 23.019531 -32.140625 19.6875 -32.140625 C 16.363281 -32.140625 13.390625 -31.453125 10.765625 -30.078125 C 8.148438 -28.710938 6.078125 -26.800781 4.546875 -24.34375 C 3.015625 -21.882812 2.25 -19.007812 2.25 -15.71875 Z M 11.28125 -15.71875 C 11.28125 -17.5 11.65625 -19.070312 12.40625 -20.4375 C 13.15625 -21.8125 14.171875 -22.863281 15.453125 -23.59375 C 16.734375 -24.320312 18.144531 -24.6875 19.6875 -24.6875 C 21.238281 -24.6875 22.648438 -24.320312 23.921875 -23.59375 C 25.203125 -22.863281 26.21875 -21.8125 26.96875 -20.4375 C 27.726562 -19.070312 28.109375 -17.5 28.109375 -15.71875 C 28.109375 -13.945312 27.726562 -12.390625 26.96875 -11.046875 C 26.21875 -9.703125 25.203125 -8.648438 23.921875 -7.890625 C 22.648438 -7.140625 21.238281 -6.765625 19.6875 -6.765625 C 18.144531 -6.765625 16.734375 -7.140625 15.453125 -7.890625 C 14.171875 -8.648438 13.15625 -9.703125 12.40625 -11.046875 C 11.65625 -12.390625 11.28125 -13.945312 11.28125 -15.71875 Z M 30.625 -47.3125 L 23.59375 -50.59375 L 13.328125 -39.65625 L 18.328125 -37.0625 Z M 30.625 -47.3125 "/></g></g></g><g fill="#6c32ad" fill-opacity="1"><g transform="translate(396.861523, 198.641183)"><g><path d="M 24.6875 -19.140625 L 24.6875 0 L 33.84375 0 L 33.84375 -20.109375 C 33.84375 -23.890625 32.929688 -26.835938 31.109375 -28.953125 C 29.285156 -31.078125 26.503906 -32.140625 22.765625 -32.140625 C 20.535156 -32.140625 18.632812 -31.671875 17.0625 -30.734375 C 15.488281 -29.796875 14.222656 -28.441406 13.265625 -26.671875 L 13.265625 -31.453125 L 4.375 -31.453125 L 4.375 0 L 13.265625 0 L 13.265625 -19.140625 C 13.265625 -20.460938 13.515625 -21.601562 14.015625 -22.5625 C 14.515625 -23.519531 15.242188 -24.257812 16.203125 -24.78125 C 17.160156 -25.3125 18.253906 -25.578125 19.484375 -25.578125 C 21.304688 -25.578125 22.628906 -25.03125 23.453125 -23.9375 C 24.273438 -22.84375 24.6875 -21.242188 24.6875 -19.140625 Z M 24.6875 -19.140625 "/></g></g></g><g fill="#6c32ad" fill-opacity="1"><g transform="translate(430.838373, 198.641183)"><g/></g></g><g fill="#6c32ad" fill-opacity="1"><g transform="translate(447.108695, 198.641183)"><g><path d="M 34.328125 -31.453125 L 25.09375 -31.453125 L 15.171875 -6.5625 L 19.5625 -6.421875 L 9.4375 -31.453125 L -0.40625 -31.453125 L 12.65625 -3.140625 L 4.71875 15.046875 L 13.8125 15.046875 Z M 34.328125 -31.453125 "/></g></g></g><g fill="#3ec2cf" fill-opacity="1"><g transform="translate(493.053623, 198.641183)"><g><path d="M 0.40625 -39.046875 L 13.265625 -39.046875 L 13.265625 0 L 23.046875 0 L 23.046875 -39.046875 L 35.96875 -39.046875 L 35.96875 -47.859375 L 0.40625 -47.859375 Z M 0.40625 -39.046875 "/></g></g></g><g fill="#3ec2cf" fill-opacity="1"><g transform="translate(525.116267, 198.641183)"><g><path d="M 19.21875 0.6875 C 23 0.6875 26.242188 -0.0507812 28.953125 -1.53125 C 31.671875 -3.019531 33.847656 -5.242188 35.484375 -8.203125 L 27.765625 -10.59375 C 26.847656 -9.09375 25.691406 -7.960938 24.296875 -7.203125 C 22.910156 -6.453125 21.238281 -6.078125 19.28125 -6.078125 C 17.550781 -6.078125 16.066406 -6.460938 14.828125 -7.234375 C 13.597656 -8.015625 12.675781 -9.132812 12.0625 -10.59375 C 11.445312 -12.050781 11.140625 -13.832031 11.140625 -15.9375 C 11.191406 -18.125 11.523438 -19.957031 12.140625 -21.4375 C 12.753906 -22.914062 13.640625 -24.03125 14.796875 -24.78125 C 15.960938 -25.539062 17.410156 -25.921875 19.140625 -25.921875 C 20.554688 -25.921875 21.785156 -25.597656 22.828125 -24.953125 C 23.878906 -24.316406 24.691406 -23.453125 25.265625 -22.359375 C 25.835938 -21.265625 26.125 -19.941406 26.125 -18.390625 C 26.125 -18.078125 26.039062 -17.679688 25.875 -17.203125 C 25.71875 -16.722656 25.546875 -16.34375 25.359375 -16.0625 L 27.765625 -19.21875 L 7.3125 -19.21875 L 7.3125 -13.75 L 35.484375 -13.75 C 35.535156 -14.019531 35.570312 -14.378906 35.59375 -14.828125 C 35.613281 -15.285156 35.625 -15.722656 35.625 -16.140625 C 35.625 -19.515625 34.984375 -22.394531 33.703125 -24.78125 C 32.429688 -27.175781 30.578125 -29 28.140625 -30.25 C 25.703125 -31.507812 22.75 -32.140625 19.28125 -32.140625 C 15.8125 -32.140625 12.800781 -31.46875 10.25 -30.125 C 7.695312 -28.78125 5.722656 -26.882812 4.328125 -24.4375 C 2.941406 -22 2.25 -19.09375 2.25 -15.71875 C 2.25 -12.394531 2.941406 -9.515625 4.328125 -7.078125 C 5.722656 -4.640625 7.695312 -2.734375 10.25 -1.359375 C 12.800781 0.00390625 15.789062 0.6875 19.21875 0.6875 Z M 19.21875 0.6875 "/></g></g></g><g fill="#3ec2cf" fill-opacity="1"><g transform="translate(558.819665, 198.641183)"><g><path d="M 11.078125 -15.71875 C 11.078125 -17.5 11.484375 -19.070312 12.296875 -20.4375 C 13.117188 -21.8125 14.222656 -22.894531 15.609375 -23.6875 C 17.003906 -24.488281 18.546875 -24.890625 20.234375 -24.890625 C 21.515625 -24.890625 22.789062 -24.679688 24.0625 -24.265625 C 25.34375 -23.859375 26.519531 -23.28125 27.59375 -22.53125 C 28.664062 -21.78125 29.472656 -20.898438 30.015625 -19.890625 L 30.015625 -28.984375 C 28.921875 -29.941406 27.492188 -30.707031 25.734375 -31.28125 C 23.984375 -31.851562 21.945312 -32.140625 19.625 -32.140625 C 16.289062 -32.140625 13.289062 -31.453125 10.625 -30.078125 C 7.957031 -28.710938 5.859375 -26.800781 4.328125 -24.34375 C 2.804688 -21.882812 2.046875 -19.007812 2.046875 -15.71875 C 2.046875 -12.488281 2.804688 -9.628906 4.328125 -7.140625 C 5.859375 -4.660156 7.957031 -2.734375 10.625 -1.359375 C 13.289062 0.00390625 16.289062 0.6875 19.625 0.6875 C 21.945312 0.6875 23.984375 0.398438 25.734375 -0.171875 C 27.492188 -0.742188 28.921875 -1.53125 30.015625 -2.53125 L 30.015625 -11.625 C 29.472656 -10.625 28.6875 -9.742188 27.65625 -8.984375 C 26.632812 -8.234375 25.484375 -7.640625 24.203125 -7.203125 C 22.929688 -6.773438 21.609375 -6.5625 20.234375 -6.5625 C 18.546875 -6.5625 17.003906 -6.945312 15.609375 -7.71875 C 14.222656 -8.5 13.117188 -9.570312 12.296875 -10.9375 C 11.484375 -12.300781 11.078125 -13.894531 11.078125 -15.71875 Z M 11.078125 -15.71875 "/></g></g></g><g fill="#3ec2cf" fill-opacity="1"><g transform="translate(588.010975, 198.641183)"><g><path d="M 24.6875 -19.140625 L 24.6875 0 L 33.84375 0 L 33.84375 -20.109375 C 33.84375 -23.890625 32.929688 -26.835938 31.109375 -28.953125 C 29.285156 -31.078125 26.503906 -32.140625 22.765625 -32.140625 C 20.535156 -32.140625 18.632812 -31.671875 17.0625 -30.734375 C 15.488281 -29.796875 14.222656 -28.441406 13.265625 -26.671875 L 13.265625 -31.453125 L 4.375 -31.453125 L 4.375 0 L 13.265625 0 L 13.265625 -19.140625 C 13.265625 -20.460938 13.515625 -21.601562 14.015625 -22.5625 C 14.515625 -23.519531 15.242188 -24.257812 16.203125 -24.78125 C 17.160156 -25.3125 18.253906 -25.578125 19.484375 -25.578125 C 21.304688 -25.578125 22.628906 -25.03125 23.453125 -23.9375 C 24.273438 -22.84375 24.6875 -21.242188 24.6875 -19.140625 Z M 24.6875 -19.140625 "/></g></g></g><g fill="#3ec2cf" fill-opacity="1"><g transform="translate(621.987833, 198.641183)"><g><path d="M 2.25 -15.71875 C 2.25 -12.488281 3.015625 -9.628906 4.546875 -7.140625 C 6.078125 -4.660156 8.148438 -2.734375 10.765625 -1.359375 C 13.390625 0.00390625 16.363281 0.6875 19.6875 0.6875 C 23.019531 0.6875 25.992188 0.00390625 28.609375 -1.359375 C 31.234375 -2.734375 33.304688 -4.660156 34.828125 -7.140625 C 36.359375 -9.628906 37.125 -12.488281 37.125 -15.71875 C 37.125 -19.007812 36.359375 -21.882812 34.828125 -24.34375 C 33.304688 -26.800781 31.234375 -28.710938 28.609375 -30.078125 C 25.992188 -31.453125 23.019531 -32.140625 19.6875 -32.140625 C 16.363281 -32.140625 13.390625 -31.453125 10.765625 -30.078125 C 8.148438 -28.710938 6.078125 -26.800781 4.546875 -24.34375 C 3.015625 -21.882812 2.25 -19.007812 2.25 -15.71875 Z M 11.28125 -15.71875 C 11.28125 -17.5 11.65625 -19.070312 12.40625 -20.4375 C 13.15625 -21.8125 14.171875 -22.863281 15.453125 -23.59375 C 16.734375 -24.320312 18.144531 -24.6875 19.6875 -24.6875 C 21.238281 -24.6875 22.648438 -24.320312 23.921875 -23.59375 C 25.203125 -22.863281 26.21875 -21.8125 26.96875 -20.4375 C 27.726562 -19.070312 28.109375 -17.5 28.109375 -15.71875 C 28.109375 -13.945312 27.726562 -12.390625 26.96875 -11.046875 C 26.21875 -9.703125 25.203125 -8.648438 23.921875 -7.890625 C 22.648438 -7.140625 21.238281 -6.765625 19.6875 -6.765625 C 18.144531 -6.765625 16.734375 -7.140625 15.453125 -7.890625 C 14.171875 -8.648438 13.15625 -9.703125 12.40625 -11.046875 C 11.65625 -12.390625 11.28125 -13.945312 11.28125 -15.71875 Z M 11.28125 -15.71875 "/></g></g></g><g fill="#3ec2cf" fill-opacity="1"><g transform="translate(657.126907, 198.641183)"><g><path d="M 4.375 -53.328125 L 4.375 0 L 13.265625 0 L 13.265625 -53.328125 Z M 4.375 -53.328125 "/></g></g></g><g fill="#3ec2cf" fill-opacity="1"><g transform="translate(670.525894, 198.641183)"><g><path d="M 2.25 -15.71875 C 2.25 -12.488281 3.015625 -9.628906 4.546875 -7.140625 C 6.078125 -4.660156 8.148438 -2.734375 10.765625 -1.359375 C 13.390625 0.00390625 16.363281 0.6875 19.6875 0.6875 C 23.019531 0.6875 25.992188 0.00390625 28.609375 -1.359375 C 31.234375 -2.734375 33.304688 -4.660156 34.828125 -7.140625 C 36.359375 -9.628906 37.125 -12.488281 37.125 -15.71875 C 37.125 -19.007812 36.359375 -21.882812 34.828125 -24.34375 C 33.304688 -26.800781 31.234375 -28.710938 28.609375 -30.078125 C 25.992188 -31.453125 23.019531 -32.140625 19.6875 -32.140625 C 16.363281 -32.140625 13.390625 -31.453125 10.765625 -30.078125 C 8.148438 -28.710938 6.078125 -26.800781 4.546875 -24.34375 C 3.015625 -21.882812 2.25 -19.007812 2.25 -15.71875 Z M 11.28125 -15.71875 C 11.28125 -17.5 11.65625 -19.070312 12.40625 -20.4375 C 13.15625 -21.8125 14.171875 -22.863281 15.453125 -23.59375 C 16.734375 -24.320312 18.144531 -24.6875 19.6875 -24.6875 C 21.238281 -24.6875 22.648438 -24.320312 23.921875 -23.59375 C 25.203125 -22.863281 26.21875 -21.8125 26.96875 -20.4375 C 27.726562 -19.070312 28.109375 -17.5 28.109375 -15.71875 C 28.109375 -13.945312 27.726562 -12.390625 26.96875 -11.046875 C 26.21875 -9.703125 25.203125 -8.648438 23.921875 -7.890625 C 22.648438 -7.140625 21.238281 -6.765625 19.6875 -6.765625 C 18.144531 -6.765625 16.734375 -7.140625 15.453125 -7.890625 C 14.171875 -8.648438 13.15625 -9.703125 12.40625 -11.046875 C 11.65625 -12.390625 11.28125 -13.945312 11.28125 -15.71875 Z M 11.28125 -15.71875 "/></g></g></g><g fill="#3ec2cf" fill-opacity="1"><g transform="translate(705.664968, 198.641183)"><g><path d="M 2.875 2.1875 C 3.050781 4.925781 3.789062 7.351562 5.09375 9.46875 C 6.394531 11.59375 8.273438 13.234375 10.734375 14.390625 C 13.191406 15.554688 16.242188 16.140625 19.890625 16.140625 C 22.898438 16.140625 25.679688 15.554688 28.234375 14.390625 C 30.785156 13.234375 32.828125 11.398438 34.359375 8.890625 C 35.890625 6.378906 36.65625 3.1875 36.65625 -0.6875 L 36.65625 -31.453125 L 28.109375 -31.453125 L 28.109375 -0.6875 C 28.109375 1.457031 27.707031 3.234375 26.90625 4.640625 C 26.101562 6.054688 25.050781 7.109375 23.75 7.796875 C 22.457031 8.484375 21.082031 8.828125 19.625 8.828125 C 18.03125 8.828125 16.640625 8.550781 15.453125 8 C 14.265625 7.445312 13.328125 6.679688 12.640625 5.703125 C 11.960938 4.722656 11.601562 3.550781 11.5625 2.1875 Z M 2.25 -16 C 2.25 -12.53125 2.957031 -9.597656 4.375 -7.203125 C 5.789062 -4.816406 7.660156 -3.007812 9.984375 -1.78125 C 12.304688 -0.550781 14.769531 0.0625 17.375 0.0625 C 20.007812 0.0625 22.34375 -0.5625 24.375 -1.8125 C 26.40625 -3.0625 28 -4.894531 29.15625 -7.3125 C 30.320312 -9.726562 30.90625 -12.625 30.90625 -16 C 30.90625 -19.414062 30.320312 -22.320312 29.15625 -24.71875 C 28 -27.113281 26.40625 -28.945312 24.375 -30.21875 C 22.34375 -31.5 20.007812 -32.140625 17.375 -32.140625 C 14.769531 -32.140625 12.304688 -31.519531 9.984375 -30.28125 C 7.660156 -29.050781 5.789062 -27.238281 4.375 -24.84375 C 2.957031 -22.457031 2.25 -19.507812 2.25 -16 Z M 11.421875 -16 C 11.421875 -17.914062 11.804688 -19.519531 12.578125 -20.8125 C 13.359375 -22.113281 14.40625 -23.101562 15.71875 -23.78125 C 17.039062 -24.46875 18.457031 -24.8125 19.96875 -24.8125 C 20.96875 -24.8125 21.945312 -24.617188 22.90625 -24.234375 C 23.863281 -23.847656 24.738281 -23.289062 25.53125 -22.5625 C 26.332031 -21.832031 26.960938 -20.921875 27.421875 -19.828125 C 27.878906 -18.734375 28.109375 -17.457031 28.109375 -16 C 28.109375 -14.082031 27.707031 -12.472656 26.90625 -11.171875 C 26.101562 -9.878906 25.078125 -8.898438 23.828125 -8.234375 C 22.578125 -7.578125 21.289062 -7.25 19.96875 -7.25 C 18.457031 -7.25 17.039062 -7.585938 15.71875 -8.265625 C 14.40625 -8.953125 13.359375 -9.945312 12.578125 -11.25 C 11.804688 -12.550781 11.421875 -14.132812 11.421875 -16 Z M 11.421875 -16 "/></g></g></g><g fill="#3ec2cf" fill-opacity="1"><g transform="translate(742.308074, 198.641183)"><g><path d="M 4.921875 -31.453125 L 4.921875 0 L 13.53125 0 L 13.53125 -31.453125 Z M 20.78125 -47.3125 L 13.75 -50.59375 L 3.484375 -39.65625 L 8.484375 -37.0625 Z M 20.78125 -47.3125 "/></g></g></g><g fill="#3ec2cf" fill-opacity="1"><g transform="translate(756.595824, 198.641183)"><g><path d="M 10.671875 -9.78125 C 10.671875 -10.6875 10.875 -11.445312 11.28125 -12.0625 C 11.6875 -12.675781 12.320312 -13.15625 13.1875 -13.5 C 14.0625 -13.84375 15.179688 -14.015625 16.546875 -14.015625 C 18.234375 -14.015625 19.835938 -13.785156 21.359375 -13.328125 C 22.890625 -12.878906 24.269531 -12.195312 25.5 -11.28125 L 25.5 -15.390625 C 25.039062 -15.929688 24.285156 -16.5 23.234375 -17.09375 C 22.191406 -17.6875 20.90625 -18.1875 19.375 -18.59375 C 17.851562 -19.007812 16.085938 -19.21875 14.078125 -19.21875 C 10.160156 -19.21875 7.128906 -18.328125 4.984375 -16.546875 C 2.847656 -14.765625 1.78125 -12.347656 1.78125 -9.296875 C 1.78125 -7.148438 2.289062 -5.335938 3.3125 -3.859375 C 4.34375 -2.378906 5.703125 -1.25 7.390625 -0.46875 C 9.078125 0.300781 10.898438 0.6875 12.859375 0.6875 C 14.765625 0.6875 16.59375 0.34375 18.34375 -0.34375 C 20.101562 -1.03125 21.539062 -2.054688 22.65625 -3.421875 C 23.78125 -4.785156 24.34375 -6.472656 24.34375 -8.484375 L 23.25 -12.578125 C 23.25 -11.078125 22.90625 -9.789062 22.21875 -8.71875 C 21.539062 -7.644531 20.65625 -6.820312 19.5625 -6.25 C 18.46875 -5.6875 17.234375 -5.40625 15.859375 -5.40625 C 14.898438 -5.40625 14.019531 -5.570312 13.21875 -5.90625 C 12.425781 -6.25 11.800781 -6.75 11.34375 -7.40625 C 10.894531 -8.070312 10.671875 -8.863281 10.671875 -9.78125 Z M 7.25 -22.5625 C 7.707031 -22.882812 8.410156 -23.269531 9.359375 -23.71875 C 10.316406 -24.175781 11.457031 -24.5625 12.78125 -24.875 C 14.101562 -25.195312 15.492188 -25.359375 16.953125 -25.359375 C 17.910156 -25.359375 18.773438 -25.265625 19.546875 -25.078125 C 20.328125 -24.898438 21 -24.609375 21.5625 -24.203125 C 22.132812 -23.796875 22.554688 -23.285156 22.828125 -22.671875 C 23.109375 -22.054688 23.25 -21.3125 23.25 -20.4375 L 23.25 0 L 31.796875 0 L 31.796875 -22.296875 C 31.796875 -24.429688 31.203125 -26.238281 30.015625 -27.71875 C 28.828125 -29.207031 27.1875 -30.335938 25.09375 -31.109375 C 23 -31.878906 20.609375 -32.265625 17.921875 -32.265625 C 14.992188 -32.265625 12.34375 -31.863281 9.96875 -31.0625 C 7.601562 -30.269531 5.601562 -29.441406 3.96875 -28.578125 Z M 7.25 -22.5625 "/></g></g></g><g fill="#3ec2cf" fill-opacity="1"><g transform="translate(787.974817, 198.641183)"><g><path d="M 5.953125 -10.875 L 1.640625 -5.328125 C 2.828125 -4.191406 4.160156 -3.132812 5.640625 -2.15625 C 7.117188 -1.175781 8.78125 -0.390625 10.625 0.203125 C 12.476562 0.796875 14.519531 1.09375 16.75 1.09375 C 20.351562 1.09375 23.179688 0.21875 25.234375 -1.53125 C 27.285156 -3.289062 28.3125 -5.742188 28.3125 -8.890625 C 28.3125 -10.804688 27.875 -12.351562 27 -13.53125 C 26.132812 -14.71875 24.984375 -15.707031 23.546875 -16.5 C 22.117188 -17.300781 20.5625 -18.023438 18.875 -18.671875 C 17.5 -19.265625 16.273438 -19.765625 15.203125 -20.171875 C 14.140625 -20.578125 13.320312 -21.039062 12.75 -21.5625 C 12.175781 -22.09375 11.890625 -22.703125 11.890625 -23.390625 C 11.890625 -24.160156 12.175781 -24.738281 12.75 -25.125 C 13.320312 -25.507812 14.109375 -25.703125 15.109375 -25.703125 C 16.617188 -25.703125 18.15625 -25.316406 19.71875 -24.546875 C 21.289062 -23.773438 22.648438 -22.769531 23.796875 -21.53125 L 27.6875 -27.015625 C 26.6875 -28.015625 25.523438 -28.890625 24.203125 -29.640625 C 22.878906 -30.390625 21.441406 -30.992188 19.890625 -31.453125 C 18.347656 -31.910156 16.6875 -32.140625 14.90625 -32.140625 C 12.8125 -32.140625 10.90625 -31.804688 9.1875 -31.140625 C 7.476562 -30.484375 6.125 -29.503906 5.125 -28.203125 C 4.125 -26.898438 3.625 -25.316406 3.625 -23.453125 C 3.625 -21.492188 4.066406 -19.882812 4.953125 -18.625 C 5.847656 -17.375 6.976562 -16.375 8.34375 -15.625 C 9.707031 -14.875 11.117188 -14.222656 12.578125 -13.671875 C 14.128906 -13.171875 15.40625 -12.691406 16.40625 -12.234375 C 17.414062 -11.785156 18.179688 -11.273438 18.703125 -10.703125 C 19.222656 -10.128906 19.484375 -9.429688 19.484375 -8.609375 C 19.484375 -7.703125 19.164062 -6.984375 18.53125 -6.453125 C 17.894531 -5.929688 16.984375 -5.671875 15.796875 -5.671875 C 14.878906 -5.671875 13.90625 -5.851562 12.875 -6.21875 C 11.851562 -6.582031 10.773438 -7.140625 9.640625 -7.890625 C 8.503906 -8.648438 7.273438 -9.644531 5.953125 -10.875 Z M 5.953125 -10.875 "/></g></g></g><g fill="#3ec2cf" fill-opacity="1"><g transform="translate(813.747871, 198.641183)"><g/></g></g><g fill="#3ec2cf" fill-opacity="1"><g transform="translate(830.018193, 198.641183)"><g><path d="M 11.828125 -10.875 L 37.125 -10.875 L 35.96875 -18.59375 L 12.984375 -18.59375 Z M 24.34375 -32.34375 L 31.515625 -15.71875 L 31.390625 -13.265625 L 37.53125 0 L 48.609375 0 L 24.34375 -50.671875 L 0.0625 0 L 11.078125 0 L 17.375 -13.671875 L 17.15625 -15.859375 Z M 24.34375 -32.34375 "/></g></g></g><g fill="#3ec2cf" fill-opacity="1"><g transform="translate(874.386523, 198.641183)"><g><path d="M 13.0625 15.046875 L 13.0625 -31.453125 L 4.171875 -31.453125 L 4.171875 15.046875 Z M 38.90625 -15.71875 C 38.90625 -19.320312 38.195312 -22.363281 36.78125 -24.84375 C 35.375 -27.332031 33.519531 -29.210938 31.21875 -30.484375 C 28.914062 -31.765625 26.441406 -32.40625 23.796875 -32.40625 C 21.109375 -32.40625 18.769531 -31.722656 16.78125 -30.359375 C 14.800781 -28.992188 13.273438 -27.066406 12.203125 -24.578125 C 11.128906 -22.097656 10.59375 -19.144531 10.59375 -15.71875 C 10.59375 -12.351562 11.128906 -9.414062 12.203125 -6.90625 C 13.273438 -4.394531 14.800781 -2.457031 16.78125 -1.09375 C 18.769531 0.269531 21.109375 0.953125 23.796875 0.953125 C 26.441406 0.953125 28.914062 0.316406 31.21875 -0.953125 C 33.519531 -2.234375 35.375 -4.125 36.78125 -6.625 C 38.195312 -9.132812 38.90625 -12.164062 38.90625 -15.71875 Z M 29.75 -15.71875 C 29.75 -13.851562 29.359375 -12.257812 28.578125 -10.9375 C 27.804688 -9.613281 26.769531 -8.609375 25.46875 -7.921875 C 24.164062 -7.242188 22.742188 -6.90625 21.203125 -6.90625 C 19.878906 -6.90625 18.585938 -7.234375 17.328125 -7.890625 C 16.078125 -8.554688 15.050781 -9.550781 14.25 -10.875 C 13.457031 -12.195312 13.0625 -13.8125 13.0625 -15.71875 C 13.0625 -17.632812 13.457031 -19.253906 14.25 -20.578125 C 15.050781 -21.898438 16.078125 -22.890625 17.328125 -23.546875 C 18.585938 -24.210938 19.878906 -24.546875 21.203125 -24.546875 C 22.742188 -24.546875 24.164062 -24.203125 25.46875 -23.515625 C 26.769531 -22.835938 27.804688 -21.835938 28.578125 -20.515625 C 29.359375 -19.191406 29.75 -17.59375 29.75 -15.71875 Z M 29.75 -15.71875 "/></g></g></g><g fill="#3ec2cf" fill-opacity="1"><g transform="translate(911.303106, 198.641183)"><g><path d="M 4.375 -53.328125 L 4.375 0 L 13.265625 0 L 13.265625 -53.328125 Z M 4.375 -53.328125 "/></g></g></g><g fill="#3ec2cf" fill-opacity="1"><g transform="translate(924.702093, 198.641183)"><g><path d="M 3.96875 -43.625 C 3.96875 -42.207031 4.488281 -41.019531 5.53125 -40.0625 C 6.582031 -39.101562 7.835938 -38.625 9.296875 -38.625 C 10.753906 -38.625 11.992188 -39.101562 13.015625 -40.0625 C 14.046875 -41.019531 14.5625 -42.207031 14.5625 -43.625 C 14.5625 -45.082031 14.046875 -46.273438 13.015625 -47.203125 C 11.992188 -48.140625 10.753906 -48.609375 9.296875 -48.609375 C 7.835938 -48.609375 6.582031 -48.140625 5.53125 -47.203125 C 4.488281 -46.273438 3.96875 -45.082031 3.96875 -43.625 Z M 4.921875 -31.453125 L 4.921875 0 L 13.53125 0 L 13.53125 -31.453125 Z M 4.921875 -31.453125 "/></g></g></g><g fill="#3ec2cf" fill-opacity="1"><g transform="translate(938.989844, 198.641183)"><g><path d="M 11.078125 -15.71875 C 11.078125 -17.5 11.484375 -19.070312 12.296875 -20.4375 C 13.117188 -21.8125 14.222656 -22.894531 15.609375 -23.6875 C 17.003906 -24.488281 18.546875 -24.890625 20.234375 -24.890625 C 21.515625 -24.890625 22.789062 -24.679688 24.0625 -24.265625 C 25.34375 -23.859375 26.519531 -23.28125 27.59375 -22.53125 C 28.664062 -21.78125 29.472656 -20.898438 30.015625 -19.890625 L 30.015625 -28.984375 C 28.921875 -29.941406 27.492188 -30.707031 25.734375 -31.28125 C 23.984375 -31.851562 21.945312 -32.140625 19.625 -32.140625 C 16.289062 -32.140625 13.289062 -31.453125 10.625 -30.078125 C 7.957031 -28.710938 5.859375 -26.800781 4.328125 -24.34375 C 2.804688 -21.882812 2.046875 -19.007812 2.046875 -15.71875 C 2.046875 -12.488281 2.804688 -9.628906 4.328125 -7.140625 C 5.859375 -4.660156 7.957031 -2.734375 10.625 -1.359375 C 13.289062 0.00390625 16.289062 0.6875 19.625 0.6875 C 21.945312 0.6875 23.984375 0.398438 25.734375 -0.171875 C 27.492188 -0.742188 28.921875 -1.53125 30.015625 -2.53125 L 30.015625 -11.625 C 29.472656 -10.625 28.6875 -9.742188 27.65625 -8.984375 C 26.632812 -8.234375 25.484375 -7.640625 24.203125 -7.203125 C 22.929688 -6.773438 21.609375 -6.5625 20.234375 -6.5625 C 18.546875 -6.5625 17.003906 -6.945312 15.609375 -7.71875 C 14.222656 -8.5 13.117188 -9.570312 12.296875 -10.9375 C 11.484375 -12.300781 11.078125 -13.894531 11.078125 -15.71875 Z M 11.078125 -15.71875 "/></g></g></g><g fill="#3ec2cf" fill-opacity="1"><g transform="translate(968.181153, 198.641183)"><g><path d="M 10.671875 -9.78125 C 10.671875 -10.6875 10.875 -11.445312 11.28125 -12.0625 C 11.6875 -12.675781 12.320312 -13.15625 13.1875 -13.5 C 14.0625 -13.84375 15.179688 -14.015625 16.546875 -14.015625 C 18.234375 -14.015625 19.835938 -13.785156 21.359375 -13.328125 C 22.890625 -12.878906 24.269531 -12.195312 25.5 -11.28125 L 25.5 -15.390625 C 25.039062 -15.929688 24.285156 -16.5 23.234375 -17.09375 C 22.191406 -17.6875 20.90625 -18.1875 19.375 -18.59375 C 17.851562 -19.007812 16.085938 -19.21875 14.078125 -19.21875 C 10.160156 -19.21875 7.128906 -18.328125 4.984375 -16.546875 C 2.847656 -14.765625 1.78125 -12.347656 1.78125 -9.296875 C 1.78125 -7.148438 2.289062 -5.335938 3.3125 -3.859375 C 4.34375 -2.378906 5.703125 -1.25 7.390625 -0.46875 C 9.078125 0.300781 10.898438 0.6875 12.859375 0.6875 C 14.765625 0.6875 16.59375 0.34375 18.34375 -0.34375 C 20.101562 -1.03125 21.539062 -2.054688 22.65625 -3.421875 C 23.78125 -4.785156 24.34375 -6.472656 24.34375 -8.484375 L 23.25 -12.578125 C 23.25 -11.078125 22.90625 -9.789062 22.21875 -8.71875 C 21.539062 -7.644531 20.65625 -6.820312 19.5625 -6.25 C 18.46875 -5.6875 17.234375 -5.40625 15.859375 -5.40625 C 14.898438 -5.40625 14.019531 -5.570312 13.21875 -5.90625 C 12.425781 -6.25 11.800781 -6.75 11.34375 -7.40625 C 10.894531 -8.070312 10.671875 -8.863281 10.671875 -9.78125 Z M 7.25 -22.5625 C 7.707031 -22.882812 8.410156 -23.269531 9.359375 -23.71875 C 10.316406 -24.175781 11.457031 -24.5625 12.78125 -24.875 C 14.101562 -25.195312 15.492188 -25.359375 16.953125 -25.359375 C 17.910156 -25.359375 18.773438 -25.265625 19.546875 -25.078125 C 20.328125 -24.898438 21 -24.609375 21.5625 -24.203125 C 22.132812 -23.796875 22.554688 -23.285156 22.828125 -22.671875 C 23.109375 -22.054688 23.25 -21.3125 23.25 -20.4375 L 23.25 0 L 31.796875 0 L 31.796875 -22.296875 C 31.796875 -24.429688 31.203125 -26.238281 30.015625 -27.71875 C 28.828125 -29.207031 27.1875 -30.335938 25.09375 -31.109375 C 23 -31.878906 20.609375 -32.265625 17.921875 -32.265625 C 14.992188 -32.265625 12.34375 -31.863281 9.96875 -31.0625 C 7.601562 -30.269531 5.601562 -29.441406 3.96875 -28.578125 Z M 7.25 -22.5625 "/></g></g></g><g fill="#3ec2cf" fill-opacity="1"><g transform="translate(999.560146, 198.641183)"><g><path d="M 28.109375 -53.328125 L 28.109375 0 L 36.984375 0 L 36.984375 -53.328125 Z M 2.25 -15.71875 C 2.25 -12.257812 2.957031 -9.296875 4.375 -6.828125 C 5.789062 -4.367188 7.660156 -2.5 9.984375 -1.21875 C 12.304688 0.0507812 14.769531 0.6875 17.375 0.6875 C 20.007812 0.6875 22.34375 0.0234375 24.375 -1.296875 C 26.40625 -2.617188 28 -4.507812 29.15625 -6.96875 C 30.320312 -9.4375 30.90625 -12.351562 30.90625 -15.71875 C 30.90625 -19.144531 30.320312 -22.078125 29.15625 -24.515625 C 28 -26.953125 26.40625 -28.832031 24.375 -30.15625 C 22.34375 -31.476562 20.007812 -32.140625 17.375 -32.140625 C 14.769531 -32.140625 12.304688 -31.5 9.984375 -30.21875 C 7.660156 -28.945312 5.789062 -27.085938 4.375 -24.640625 C 2.957031 -22.203125 2.25 -19.226562 2.25 -15.71875 Z M 11.421875 -15.71875 C 11.421875 -17.59375 11.804688 -19.210938 12.578125 -20.578125 C 13.359375 -21.941406 14.40625 -22.988281 15.71875 -23.71875 C 17.039062 -24.445312 18.457031 -24.8125 19.96875 -24.8125 C 21.289062 -24.8125 22.578125 -24.457031 23.828125 -23.75 C 25.078125 -23.050781 26.101562 -22.015625 26.90625 -20.640625 C 27.707031 -19.273438 28.109375 -17.632812 28.109375 -15.71875 C 28.109375 -13.8125 27.707031 -12.171875 26.90625 -10.796875 C 26.101562 -9.429688 25.078125 -8.394531 23.828125 -7.6875 C 22.578125 -6.976562 21.289062 -6.625 19.96875 -6.625 C 18.457031 -6.625 17.039062 -6.988281 15.71875 -7.71875 C 14.40625 -8.457031 13.359375 -9.507812 12.578125 -10.875 C 11.804688 -12.238281 11.421875 -13.851562 11.421875 -15.71875 Z M 11.421875 -15.71875 "/></g></g></g><g fill="#3ec2cf" fill-opacity="1"><g transform="translate(1036.476696, 198.641183)"><g><path d="M 10.671875 -9.78125 C 10.671875 -10.6875 10.875 -11.445312 11.28125 -12.0625 C 11.6875 -12.675781 12.320312 -13.15625 13.1875 -13.5 C 14.0625 -13.84375 15.179688 -14.015625 16.546875 -14.015625 C 18.234375 -14.015625 19.835938 -13.785156 21.359375 -13.328125 C 22.890625 -12.878906 24.269531 -12.195312 25.5 -11.28125 L 25.5 -15.390625 C 25.039062 -15.929688 24.285156 -16.5 23.234375 -17.09375 C 22.191406 -17.6875 20.90625 -18.1875 19.375 -18.59375 C 17.851562 -19.007812 16.085938 -19.21875 14.078125 -19.21875 C 10.160156 -19.21875 7.128906 -18.328125 4.984375 -16.546875 C 2.847656 -14.765625 1.78125 -12.347656 1.78125 -9.296875 C 1.78125 -7.148438 2.289062 -5.335938 3.3125 -3.859375 C 4.34375 -2.378906 5.703125 -1.25 7.390625 -0.46875 C 9.078125 0.300781 10.898438 0.6875 12.859375 0.6875 C 14.765625 0.6875 16.59375 0.34375 18.34375 -0.34375 C 20.101562 -1.03125 21.539062 -2.054688 22.65625 -3.421875 C 23.78125 -4.785156 24.34375 -6.472656 24.34375 -8.484375 L 23.25 -12.578125 C 23.25 -11.078125 22.90625 -9.789062 22.21875 -8.71875 C 21.539062 -7.644531 20.65625 -6.820312 19.5625 -6.25 C 18.46875 -5.6875 17.234375 -5.40625 15.859375 -5.40625 C 14.898438 -5.40625 14.019531 -5.570312 13.21875 -5.90625 C 12.425781 -6.25 11.800781 -6.75 11.34375 -7.40625 C 10.894531 -8.070312 10.671875 -8.863281 10.671875 -9.78125 Z M 7.25 -22.5625 C 7.707031 -22.882812 8.410156 -23.269531 9.359375 -23.71875 C 10.316406 -24.175781 11.457031 -24.5625 12.78125 -24.875 C 14.101562 -25.195312 15.492188 -25.359375 16.953125 -25.359375 C 17.910156 -25.359375 18.773438 -25.265625 19.546875 -25.078125 C 20.328125 -24.898438 21 -24.609375 21.5625 -24.203125 C 22.132812 -23.796875 22.554688 -23.285156 22.828125 -22.671875 C 23.109375 -22.054688 23.25 -21.3125 23.25 -20.4375 L 23.25 0 L 31.796875 0 L 31.796875 -22.296875 C 31.796875 -24.429688 31.203125 -26.238281 30.015625 -27.71875 C 28.828125 -29.207031 27.1875 -30.335938 25.09375 -31.109375 C 23 -31.878906 20.609375 -32.265625 17.921875 -32.265625 C 14.992188 -32.265625 12.34375 -31.863281 9.96875 -31.0625 C 7.601562 -30.269531 5.601562 -29.441406 3.96875 -28.578125 Z M 7.25 -22.5625 "/></g></g></g><g fill="#3ec2cf" fill-opacity="1"><g transform="translate(1067.855689, 198.641183)"><g><path d="M 5.953125 -10.875 L 1.640625 -5.328125 C 2.828125 -4.191406 4.160156 -3.132812 5.640625 -2.15625 C 7.117188 -1.175781 8.78125 -0.390625 10.625 0.203125 C 12.476562 0.796875 14.519531 1.09375 16.75 1.09375 C 20.351562 1.09375 23.179688 0.21875 25.234375 -1.53125 C 27.285156 -3.289062 28.3125 -5.742188 28.3125 -8.890625 C 28.3125 -10.804688 27.875 -12.351562 27 -13.53125 C 26.132812 -14.71875 24.984375 -15.707031 23.546875 -16.5 C 22.117188 -17.300781 20.5625 -18.023438 18.875 -18.671875 C 17.5 -19.265625 16.273438 -19.765625 15.203125 -20.171875 C 14.140625 -20.578125 13.320312 -21.039062 12.75 -21.5625 C 12.175781 -22.09375 11.890625 -22.703125 11.890625 -23.390625 C 11.890625 -24.160156 12.175781 -24.738281 12.75 -25.125 C 13.320312 -25.507812 14.109375 -25.703125 15.109375 -25.703125 C 16.617188 -25.703125 18.15625 -25.316406 19.71875 -24.546875 C 21.289062 -23.773438 22.648438 -22.769531 23.796875 -21.53125 L 27.6875 -27.015625 C 26.6875 -28.015625 25.523438 -28.890625 24.203125 -29.640625 C 22.878906 -30.390625 21.441406 -30.992188 19.890625 -31.453125 C 18.347656 -31.910156 16.6875 -32.140625 14.90625 -32.140625 C 12.8125 -32.140625 10.90625 -31.804688 9.1875 -31.140625 C 7.476562 -30.484375 6.125 -29.503906 5.125 -28.203125 C 4.125 -26.898438 3.625 -25.316406 3.625 -23.453125 C 3.625 -21.492188 4.066406 -19.882812 4.953125 -18.625 C 5.847656 -17.375 6.976562 -16.375 8.34375 -15.625 C 9.707031 -14.875 11.117188 -14.222656 12.578125 -13.671875 C 14.128906 -13.171875 15.40625 -12.691406 16.40625 -12.234375 C 17.414062 -11.785156 18.179688 -11.273438 18.703125 -10.703125 C 19.222656 -10.128906 19.484375 -9.429688 19.484375 -8.609375 C 19.484375 -7.703125 19.164062 -6.984375 18.53125 -6.453125 C 17.894531 -5.929688 16.984375 -5.671875 15.796875 -5.671875 C 14.878906 -5.671875 13.90625 -5.851562 12.875 -6.21875 C 11.851562 -6.582031 10.773438 -7.140625 9.640625 -7.890625 C 8.503906 -8.648438 7.273438 -9.644531 5.953125 -10.875 Z M 5.953125 -10.875 "/></g></g></g><g clip-path="url(#0986b7db52)"><g transform="matrix(1, 0, 0, 1, 1, 1)"><g clip-path="url(#e2efcc8d18)"><g clip-path="url(#ab84fb7fce)"><g mask="url(#3f1bf3066c)"><g transform="matrix(1, 0, 0, 1, -0.000000000000003553, -0.000000000000028422)"><g clip-path="url(#629be470ae)"><g clip-path="url(#b588f6060f)"><path fill="url(#689fd246f0)" d="M 0.3125 0.320312 L 0.3125 266 L 1215.5 266 L 1215.5 0.320312 Z M 0.3125 0.320312 " fill-rule="nonzero"/></g></g></g></g></g></g></g></g></g></g></g></svg>